<?xml version="1.0" encoding="UTF-8" standalone="no"?>
<!DOCTYPE svg PUBLIC "-//W3C//DTD SVG 1.1//EN" "http://www.w3.org/Graphics/SVG/1.1/DTD/svg11.dtd">
<svg width="100%" height="100%" viewBox="0 0 480 400" version="1.1" xmlns="http://www.w3.org/2000/svg" xmlns:xlink="http://www.w3.org/1999/xlink" xml:space="preserve" xmlns:serif="http://www.serif.com/" style="fill-rule:evenodd;clip-rule:evenodd;stroke-linejoin:round;stroke-miterlimit:2;">
    <g id="Layer1">
        <g transform="matrix(0.612742,0,0,0.363141,124.979,39.7989)">
            <rect x="0" y="0" width="375" height="500" style="fill:rgb(13,13,13);"/>
        </g>
        <g transform="matrix(0.612742,0,0,0.612742,269.164,128.269)">
            <path d="M0,-40.707C-5.581,-27.936 7.534,-20.353 10.529,0C14.446,-27.507 0,-40.707 0,-40.707" style="fill:rgb(145,23,64);fill-rule:nonzero;"/>
        </g>
        <g transform="matrix(0.612742,0,0,0.612742,248.202,97.2414)">
            <path d="M0,3.772C6.508,6.233 20.809,-1.767 24.111,4.537C27.414,10.84 31.228,-7.068 19.016,-6.182C6.804,-5.295 0,3.772 0,3.772" style="fill:rgb(145,23,64);fill-rule:nonzero;"/>
        </g>
        <g transform="matrix(0.612742,0,0,0.612742,273.984,139.886)">
            <path d="M0,7.138C-4.443,22.021 -21.926,18.358 -20.743,25.143C-18.944,35.491 -23.981,44.773 -28.659,46.081C-28.659,46.081 -24.7,27.434 -33.337,27.106C-31.179,32.341 -31.179,44.118 -42.69,49.955C-53.954,55.668 -75.792,58.185 -101.698,47.716C-112.852,42.156 -135.387,21.025 -135.159,-5.937C-131.562,4.86 -126.523,8.785 -126.523,8.785C-128.683,-2.338 -134.439,-22.622 -125.805,-36.035C-117.17,-49.449 -100.258,-42.251 -95.221,-47.158C-90.185,-52.066 -105.408,-63.845 -104.04,-71.316C-101.702,-84.076 -69.013,-95.503 -60.377,-88.633C-51.742,-81.763 -57.52,-73.735 -51.401,-68.5C-52.122,-75.043 -46.005,-80.605 -49.603,-86.82C-42.768,-83.222 -50.683,-73.408 -44.205,-67.192C-37.729,-60.975 -26.216,-72.754 -20.819,-69.809C-15.422,-66.865 -18.302,-50.507 -12.903,-43.636C-12.903,-52.47 -7.866,-59.667 -7.866,-59.667C-8.88,-47.661 10.102,-26.701 0,7.138M-7.177,-93.232C-7.177,-93.232 -2.529,-83.391 -4.677,-72.232C-5.95,-78.612 -8.829,-84.596 -13.006,-90.065C-13.146,-90.227 -13.298,-90.419 -13.471,-90.674C-13.697,-90.962 -13.932,-91.245 -14.165,-91.53C-17.952,-95.304 -20.246,-81.642 -27.151,-81.348C-34.459,-81.038 -33.975,-98.171 -53.601,-98.538C-26.993,-106.973 -26.287,-88.083 -24.461,-92.832C-22.635,-97.58 -27.005,-103.32 -33.485,-107.485C-37.434,-109.783 -41.686,-111.867 -46.198,-113.705C-48.677,-95.232 -78.99,-120.844 -113.637,-89.338C-135.84,-95.519 -152.818,-82.166 -158.505,-65.147C-141.737,-61.647 -140.73,-41.025 -148.914,-38.061C-157.097,-35.096 -155.612,-47.959 -156.177,-53.982C-171.369,-22.058 -148.263,18.326 -127.223,29.14C-156.27,19.011 -157.677,45.698 -165.177,35.699C-167.959,51.812 -158.899,61.267 -148.677,61.768C-155.177,74.269 -148.177,95.268 -126.177,104.268C-129.677,99.268 -135.655,95.934 -134.677,83.268C-134.177,89.268 -121.177,102.768 -101.677,105.768C-95.541,106.711 -88.564,107.854 -81.726,109.419C-93.823,98.097 -100.042,86.209 -107.577,86.209C-113.137,86.209 -112.644,90.659 -106.852,95.198C-100.537,100.147 -88.679,103.858 -95.191,103.297C-103.146,102.613 -108.972,100.682 -113.298,98.102C-118.436,95.058 -122.063,85.914 -123.144,79.141C-123.163,81.12 -123.468,84.555 -122.864,88.162C-126.841,80.87 -126.764,73.543 -129.372,72.614C-134.439,70.808 -138.745,83.444 -141.151,78.157C-143.558,72.87 -134.533,66.598 -138.378,65.631C-142.224,64.664 -146.566,56.971 -148.397,50.99C-145.416,52.228 -141.191,61.046 -132.966,48.938C-127.173,40.409 -117.191,43.903 -104.854,53.361C-97.767,59.192 -82.575,78.157 -100.029,76.965C-95.191,84.144 -89.669,81.386 -89.669,81.386C-82.117,96.138 -70.131,94.425 -55.177,107.992C-48.624,113.937 -47.131,123.137 -49.177,127.982C-39.177,115.196 -52.676,95.789 -66.707,81.396C-66.707,81.396 -47.411,97.117 -32.177,94.768C-52.139,86.086 -55.177,70.327 -75.021,57.502C-47.902,71.005 5.912,74.409 11.121,58.821C11.121,58.821 -2.081,66.382 -12.205,59.998C11.121,58.821 20.698,45.408 23.297,21.066C24.779,7.174 17.823,-1.232 23.003,-6.5C25.037,-8.568 30.88,-12.402 34.36,0.846C43.457,-33.473 6.823,-83.732 -7.177,-93.232" style="fill:rgb(69,49,74);fill-rule:nonzero;"/>
        </g>
        <g transform="matrix(0.612742,0,0,0.612742,197.141,171.198)">
            <path d="M0,-17.177C-10.76,-21.03 -19.945,-23.271 -29.602,-15.3C-22.507,-16.093 -29.69,-10.308 -36.157,-10.308C-36.157,-10.308 -37.473,2.985 -25.738,6.094C-30.688,0.927 -31.302,-6.717 -25.92,-11.221C-20.538,-15.725 -9.752,-13.053 -12.499,-5.678C-13.56,-2.83 -16.734,-0.161 -16.734,-0.161C-5.22,-0.161 -7.254,-15.865 0,-17.177" style="fill:rgb(92,72,102);fill-rule:nonzero;"/>
        </g>
        <g transform="matrix(0.612742,0,0,0.612742,235.76,185.018)">
            <path d="M0,21.247C-4.153,12.702 -9.007,5.311 -18.944,0C-29.134,1.616 -7.617,13.857 0,21.247" style="fill:rgb(40,42,30);fill-rule:nonzero;"/>
        </g>
        <g transform="matrix(0.612742,0,0,0.612742,228.165,94.2869)">
            <path d="M0,-7.233C2.085,-5.254 5.068,0 10.792,-2.209C1.57,-6.998 0,-7.233 0,-7.233" style="fill:rgb(255,0,94);fill-rule:nonzero;"/>
        </g>
        <g transform="matrix(0.612742,0,0,0.612742,256.048,174.351)">
            <path d="M0,-102.936C-7.153,-111.741 -19.26,-103.211 -17.334,-95.807C-15.407,-88.402 -24.763,-84.538 -27.826,-90.72C-28.866,-93.595 -29.354,-95.932 -28.96,-97.434C-41.61,-98.899 -24.763,-63.284 -37.314,-65.58C-45.289,-67.039 -33.706,-79.405 -42.802,-84.538C-39.038,-75.859 -69.089,-80.214 -82.196,-60.961C-98.142,-37.539 -79.929,-9.27 -64.441,-5.544C-4.802,8.805 -6.808,-39.001 -10.423,-52.551C-10.521,-52.916 -10.632,-53.291 -10.746,-53.671C-10.747,-53.675 -10.747,-53.678 -10.748,-53.681C-13.108,-70.952 -17.334,-73.771 -17.334,-80.649C-17.334,-86.693 -11.281,-90.83 -11.882,-81.476C-12.482,-72.121 -3.853,-69.369 1.65,-70.47C-6.604,-73.771 7.153,-94.132 0,-102.936" style="fill:rgb(71,40,46);fill-rule:nonzero;"/>
        </g>
        <g transform="matrix(0,-0.612742,-0.612742,0,191.297,120.385)">
            <path d="M4.871,-38.075C0.092,-35.826 -0.393,-31.789 -6.399,-27.764C-3.246,-28.122 3.387,-27.561 4.871,-24.517C-9.803,-24.302 -10.865,-0.3 -38.075,-15.155C-14.482,-11.421 -12.297,-42.645 4.871,-38.075" style="fill:rgb(71,40,46);fill-rule:nonzero;"/>
        </g>
        <g transform="matrix(0.612742,0,0,0.612742,214.908,112.509)">
            <path d="M0,-18.219C-2.017,-26.374 6.576,-36.199 17.573,-32.664C27.72,-29.402 38.182,-13.559 22.335,4.61C26.027,-5.751 25.68,-18.274 18.465,-14.491C11.355,-10.763 24.412,12.474 10.382,17.98C15.355,6.793 8.933,-1.275 3.808,0.854C7.069,-4.473 7.679,-10.156 0,-18.219" style="fill:rgb(71,40,46);fill-rule:nonzero;"/>
        </g>
        <g transform="matrix(0.612742,0,0,0.612742,263.279,153.333)">
            <path d="M0,-59.832C-16.716,-48.645 -1.589,-24.726 -6.697,-23.253C-0.887,-27.789 -0.887,-35.177 -0.887,-35.177C1.942,-31.306 -5.676,-5.057 -11.594,0C-0.421,-4.151 14.723,-15.405 12.972,-37.168C12.162,-47.238 3.726,-52.958 3.726,-52.958C4.461,-49.053 2.946,-46.251 0,-47.311C-2.945,-48.372 -3.313,-54.487 0,-59.832" style="fill:rgb(71,40,46);fill-rule:nonzero;"/>
        </g>
        <g transform="matrix(0.612742,0,0,0.612742,238.571,113.44)">
            <path d="M0,39.557C3.264,35.426 2.599,30.287 -1.315,24.724C-3.588,21.492 -1.628,13.682 2.206,18.906C6.882,25.278 8.895,18.957 3.332,11.82C0.6,8.316 -3.383,1.433 -0.864,-2.746C-6.724,2.79 -0.578,11.661 -1.628,13.682C-2.647,15.642 -8.919,18.239 -5.542,23.836C-1.499,30.537 -10.456,35.071 -7.487,38.687C-4.518,42.303 0,39.557 0,39.557" style="fill:rgb(69,49,74);fill-rule:nonzero;"/>
        </g>
        <g transform="matrix(0.612742,0,0,0.612742,231.332,114.967)">
            <path d="M0,95.217C21.286,101.258 35.782,104.979 42.479,103.118C49.177,101.257 48.204,92.696 48.204,92.696C48.204,92.696 69.334,99.608 81.393,82.638C90.118,70.358 86.398,49.98 86.398,49.98C73.111,59.712 78.305,31.308 90.73,27.914C96.776,26.263 102.331,31.308 102.331,31.308C103.848,16.143 94.718,18.646 94.718,18.646C98.706,10.76 94.487,-9.762 79.491,-9.762C79.491,-9.762 96.578,-3.158 83.842,18.646C71.719,39.401 80.217,52.486 57.108,72.787C64.579,74.26 75.504,61.427 75.504,61.427C77.68,77.212 62.453,84.754 47.315,87.696C30.181,91.027 0,95.217 0,95.217" style="fill:rgb(92,72,102);fill-rule:nonzero;"/>
        </g>
        <g transform="matrix(0.612742,0,0,0.612742,197.991,85.9304)">
            <path d="M0,110.001C-11.478,101.801 -26.153,88.788 -28.098,75.302C-23.854,79.428 -20.998,83.343 -20.998,83.343C-23.854,79.428 -27.756,67.236 -24.376,59.766C-20.998,52.296 -11.484,48.46 -17.129,32.303C-13.857,34.207 -11.14,36.587 -11.14,36.587C-11.14,36.587 -11.14,19.078 -26.237,19.078C-15.286,8.979 -3.158,3.743 7.676,2.791C-6.717,10.407 -10.472,20.03 -3.714,19.078C3.044,18.126 13.377,0 22.319,1.073C22.319,1.073 13.954,8.302 11.462,16.161C7.402,28.971 15.74,36.111 19.981,38.015C12.323,38.967 4.338,37.081 -3.532,44.23C-17.129,56.58 -12.694,88.635 0,110.001" style="fill:rgb(92,72,102);fill-rule:nonzero;"/>
        </g>
        <g transform="matrix(0.612742,0,0,0.612742,201.674,174.356)">
            <path d="M0,-12.729C-9.979,-17.085 -15.257,-4.633 -8.084,-0.722C1.228,4.356 9.792,-8.454 0,-12.729" style="fill:rgb(145,23,64);fill-rule:nonzero;"/>
        </g>
        <g transform="matrix(0.612742,0,0,0.612742,205.529,130.872)">
            <path d="M0,49.723C-18.25,40.305 -11.254,8.046 -21.549,6.355C-16.268,4.306 -13.365,10.146 -12.034,18.263C-11.43,21.946 -11.709,13.226 -7.686,6.867C-4.727,2.192 0.336,0 3.279,3.158C-8.303,4.161 -5.466,34.13 -3.33,26.206C-1.068,17.823 3.18,19.132 2.995,15.72C3.418,21.849 -9.065,32.254 0,49.723" style="fill:rgb(145,23,64);fill-rule:nonzero;"/>
        </g>
        <g transform="matrix(0.612742,0,0,0.612742,266.161,179.485)">
            <path d="M0,-70.47C-12.53,-65.237 -8.65,-52.803 -13.262,-49.945C-17.873,-47.085 -21.941,-58.227 -33.639,-52.378C-22.202,-50.832 -21.941,-32.173 -24.601,-29.897C-27.259,-27.619 -26.194,-36.959 -32.044,-35.967C-28.854,-25.936 -45.868,-16.754 -49.614,-21.233C-53.36,-25.709 -47.327,-27.806 -45.464,-39.503C-43.601,-51.199 -51.037,-61.24 -59.976,-63.16C-59.976,-63.16 -53.939,-58.376 -55.926,-54.396C-58.274,-58.65 -69.354,-64.341 -83.913,-58.086C-103.623,-49.616 -96.825,-24.332 -87.826,-18.893C-56.567,0 -12.903,-18.881 -3.586,-29.897C5.731,-40.911 -3.696,-60.355 0,-70.47" style="fill:rgb(145,23,64);fill-rule:nonzero;"/>
        </g>
        <g transform="matrix(0.612742,0,0,0.612742,214.177,147.211)">
            <path d="M0,35C-4.412,33.154 -13.018,26.604 -13.038,18.494C-13.05,13.374 -10.551,9.948 -7.704,8.438C-9.315,10.622 -9.989,15.677 -7.507,15.524C-4.207,15.322 -6.716,7.036 0.395,1.899C4.904,-1.357 13.235,0.122 16.001,2.098C18.766,2.69 15.803,-2.644 15.803,-2.644C27.774,3.345 32.744,19.174 25.625,33.103C24.697,25.262 24.526,32.387 18.964,35C13.337,37.644 6.321,37.644 0,35" style="fill:rgb(255,0,94);fill-rule:nonzero;"/>
        </g>
        <g transform="matrix(0.612742,0,0,0.612742,225.671,165.214)">
            <path d="M0,-11.159C-0.046,-10.311 -0.572,-9.332 -1.308,-8.215C-4.078,-16.647 -12.931,-15.124 -14.371,-18.731C-16.885,-16.34 -23.516,-11.319 -24.559,-5.11C-25.607,1.134 -20.202,6.07 -15.585,6.848C-12.762,7.572 -9.406,7.132 -6.572,5.861C-6.496,6.299 -6.4,6.744 -6.269,7.199C3.819,3.66 1.73,-7.817 0,-11.159" style="fill:rgb(237,232,173);fill-rule:nonzero;"/>
        </g>
        <g transform="matrix(0.612742,0,0,0.612742,266.324,136.998)">
            <path d="M0,22.507C7.245,17.153 12.831,8.593 12.473,0C17.637,7.495 19.735,20.513 0,22.507" style="fill:rgb(145,23,64);fill-rule:nonzero;"/>
        </g>
        <g transform="matrix(0.612742,0,0,0.612742,195.827,132.071)">
            <path d="M0,-31.072C-10.497,-25.613 -16.376,-15.536 -3.36,0C-5.994,-12.596 -5.413,-24.354 0,-31.072" style="fill:rgb(145,23,64);fill-rule:nonzero;"/>
        </g>
        <g transform="matrix(0.612742,0,0,0.612742,231.332,157.474)">
            <path d="M0,-13.236C1.982,-10.032 3.515,-6.618 3.199,0C5.839,-4.297 7.005,-9.661 0,-13.236" style="fill:rgb(255,0,94);fill-rule:nonzero;"/>
        </g>
        <g transform="matrix(0.612742,0,0,0.612742,263.964,140.106)">
            <path d="M0,34.371C9.015,16.266 5.163,7.645 9.014,2.756C1.075,5.892 -2.941,26.309 -6.708,34.623C-10.435,42.848 -17.821,44.607 -20.036,44.692C-25.724,44.911 -24.65,39.521 -28.875,39.357C-25.279,44.89 -34.729,50.263 -49.345,50.696C-58.234,50.96 -66.755,50.893 -77.707,46.056C-104.16,34.371 -118.081,20.606 -118.5,-1.893C-118.854,-20.897 -104.891,-30.059 -104.891,-30.059C-111.867,-31.649 -117.019,-18.831 -117.019,-18.831C-114.557,-30.059 -103.991,-41.222 -111.332,-43.428C-108.626,-38.842 -115.588,-36.649 -120.612,-27.921C-126.596,-17.526 -122.9,-5.054 -122.9,-5.054C-124.56,-11.232 -128.98,-12.719 -131.975,-12.719C-129.208,-10.506 -128.101,-2.57 -120.612,10.653C-113.263,23.634 -102.518,35.011 -105.672,34.371C-119.152,31.638 -117.71,48.496 -109.062,55.302C-110.571,49.219 -111.2,41.771 -94.973,42.953C-94.973,42.953 -99.383,44.183 -99.121,48.496C-95.059,44.594 -85.761,46.752 -83.234,48.496C-78.411,51.827 -78.182,57.739 -74.231,65.353C-69.937,73.63 -62.729,76.718 -57.914,77.799C-62.317,74.453 -64.562,68.147 -61.282,66.46C-58.404,64.98 -56.889,70.609 -53.489,72.821C-55.701,69.225 -53.489,65.353 -59.296,60.1C-61.029,58.532 -62.038,57.262 -62.25,56.279C-60.648,52.263 -32.619,58.069 -10.304,48.343C5.455,41.473 5.621,27.744 12.527,24.625C10.146,24.818 3.361,27.621 0,34.371" style="fill:rgb(125,102,135);fill-rule:nonzero;"/>
        </g>
        <g transform="matrix(0.612742,0,0,0.612742,199.536,168.457)">
            <path d="M0,8.673C-3.316,8.394 -1.191,-0.839 2.615,-0.314C6.423,0.21 9.979,9.512 0,8.673" style="fill:rgb(255,0,94);fill-rule:nonzero;"/>
        </g>
        <g transform="matrix(0.612742,0,0,0.612742,194.864,162.047)">
            <path d="M0,-31.562C0.032,-23.285 7.038,-8.632 16.566,0C6.813,-6.571 2.035,-5.499 2.035,-10.669C3.009,-8.19 5.534,-8.139 5.332,-10.007C4.929,-13.742 -0.9,-15.409 -1.472,-20.699C-1.921,-24.854 -0.051,-24.095 0,-31.562" style="fill:rgb(183,173,214);fill-rule:nonzero;"/>
        </g>
        <g transform="matrix(0.612742,0,0,0.612742,257.361,165.055)">
            <path d="M0,-0.389C-0.46,0.998 6.163,3.057 8.158,-3.446L0,-0.389Z" style="fill:rgb(69,49,74);fill-rule:nonzero;"/>
        </g>
        <g transform="matrix(0.112212,0.60238,0.60238,-0.112212,236.39,159.642)">
            <path d="M15.358,-19.93C17.385,-16.197 15.046,-2.399 15.108,0.362C17.935,-3.836 21.063,4.028 15.358,9.551C20.69,12.66 17.047,14.504 20.312,19.168C17.982,10.814 27.378,7.213 15.358,-19.93" style="fill:rgb(183,173,214);fill-rule:nonzero;"/>
        </g>
        <g transform="matrix(0.612742,0,0,0.612742,256.175,154.519)">
            <path d="M0,15.963C1.643,17.059 4.854,17.899 8.058,15.025C12.712,10.848 12.021,2.931 16.564,-1.936C11.558,0.88 8.357,10.722 7.66,12.364C7.666,10.487 7.511,7.983 8.136,6.341C6.493,7.749 6.533,15.025 0,15.963" style="fill:rgb(183,173,214);fill-rule:nonzero;"/>
        </g>
        <g transform="matrix(0.612742,0,0,0.612742,206.366,159.653)">
            <path d="M0,5.953C-4.702,-0.461 -14.471,1.182 -22.613,-6.764C-21.431,-4.766 -18.299,-2.102 -14.767,0.413C-17.747,-0.823 -20.901,-1.703 -23.914,-1.703C-18.11,1.005 -10.161,4.284 -10.161,4.284C-14.476,4.122 -20.313,9.849 -29.057,10.271C-9.902,12.717 -2.206,7.731 -2.206,7.731C-12.201,1.437 -7.783,0.819 0,5.953" style="fill:rgb(183,173,214);fill-rule:nonzero;"/>
        </g>
        <g transform="matrix(0.612742,0,0,0.612742,191.957,121.688)">
            <path d="M0,32.938C-1.098,28.886 -2.208,22.664 -0.624,17.001C1.556,9.21 2.476,3.114 1.064,0C2.095,6.419 -2.666,11.378 -3.486,17.503C-2.666,11.378 -3.292,11.832 -2.614,7.92C-5.912,13.329 -6.293,22.806 0,32.938" style="fill:rgb(183,173,214);fill-rule:nonzero;"/>
        </g>
        <g transform="matrix(0.612742,0,0,0.612742,198.938,128.269)">
            <path d="M0,11.457C-0.816,8.269 -1.299,0.576 5.37,0C3.242,4.167 1.963,4.685 0,11.457" style="fill:rgb(145,23,64);fill-rule:nonzero;"/>
        </g>
        <g transform="matrix(0.612742,0,0,0.612742,205.613,111.151)">
            <path d="M0,28.999C-2.502,24.457 -2.329,15.75 2.152,11.949C11.282,4.203 20.254,6.935 26.524,0C23.877,6.916 8.729,13.624 6.269,14.943C8.163,14.353 9.88,16.163 9.348,18.605C7.068,15.111 -1.123,20.755 0,28.999" style="fill:rgb(145,23,64);fill-rule:nonzero;"/>
        </g>
        <g transform="matrix(0.612742,0,0,0.612742,202.789,119.946)">
            <path d="M0,8.123C-0.216,5.107 1.938,0 6.762,2.234C4.236,3.384 0.825,4.252 0,8.123" style="fill:rgb(255,0,94);fill-rule:nonzero;"/>
        </g>
        <g transform="matrix(0,-0.612742,-0.612742,0,236.336,132.697)">
            <path d="M-4.653,-4.653C-7.222,-4.653 -9.306,-2.57 -9.306,0C-9.306,2.57 -7.222,4.653 -4.653,4.653C-2.083,4.653 0,2.57 0,0C0,-2.57 -2.083,-4.653 -4.653,-4.653" style="fill:rgb(92,72,102);fill-rule:nonzero;"/>
        </g>
        <g transform="matrix(0.612742,0,0,0.612742,208.2,174.363)">
            <path d="M0,-5.546C-5.075,-5.546 -10.482,-6.802 -13.223,1.256C-9.804,-1.392 -2.585,-1.015 0,-5.546" style="fill:rgb(125,102,135);fill-rule:nonzero;"/>
        </g>
        <g transform="matrix(0.193739,0.581307,0.581307,-0.193739,223.058,82.4475)">
            <path d="M11.753,-10.752C8.554,2.078 18.738,-0.65 21.125,-3.992C19.911,3.038 13.399,4.281 11.753,2.661C13.399,4.281 22.108,6.559 22.395,13.813C19.93,11.347 4.661,6.894 11.753,-10.752" style="fill:rgb(69,49,74);fill-rule:nonzero;"/>
        </g>
        <g transform="matrix(0.612742,0,0,0.612742,262.708,157.474)">
            <path d="M0,-21.229C-7.022,-15.504 -4.659,-8.032 -7.196,0C-2.008,-5.882 -1.276,-14.397 0,-21.229" style="fill:rgb(125,102,135);fill-rule:nonzero;"/>
        </g>
        <g transform="matrix(0.612742,0,0,0.612742,200.442,86.588)">
            <path d="M0,32.23C1.958,30.175 7.463,8.11 18.32,0C15.935,4.592 12.375,25.189 0,32.23" style="fill:rgb(69,49,74);fill-rule:nonzero;"/>
        </g>
        <g transform="matrix(0.612742,0,0,0.612742,234.553,107.94)">
            <path d="M0,15.44C-5.979,8.666 -1.111,5.12 -2.505,0C1.611,5.243 -1.422,12.227 0,15.44" style="fill:rgb(69,49,74);fill-rule:nonzero;"/>
        </g>
        <g transform="matrix(0,-0.612742,-0.612742,0,258.947,161.822)">
            <path d="M-2.248,-2.246C-3.487,-2.246 -4.494,-1.24 -4.494,0C-4.494,1.241 -3.487,2.248 -2.248,2.248C-1.007,2.248 0,1.241 0,0C0,-1.24 -1.007,-2.246 -2.248,-2.246" style="fill:rgb(237,232,173);fill-rule:nonzero;"/>
        </g>
        <g transform="matrix(0.612742,0,0,0.612742,200.6,170.595)">
            <path d="M0,4.365C-2.147,2.923 0.875,1.16 2.07,-0.611C4.746,1.212 3.118,4.976 0,4.365" style="fill:rgb(237,232,173);fill-rule:nonzero;"/>
        </g>
        <g transform="matrix(0,-0.612742,-0.612742,0,224.83,153.091)">
            <path d="M-1.776,-1.775C-2.755,-1.775 -3.55,-0.98 -3.55,0C-3.55,0.981 -2.755,1.776 -1.776,1.776C-0.795,1.776 0,0.981 0,0C0,-0.98 -0.795,-1.775 -1.776,-1.775" style="fill:rgb(237,232,173);fill-rule:nonzero;"/>
        </g>
        <g transform="matrix(0,-0.612742,-0.612742,0,220.274,146.185)">
            <path d="M-2.014,-2.014C-3.125,-2.014 -4.028,-1.113 -4.028,0C-4.028,1.112 -3.125,2.014 -2.014,2.014C-0.902,2.014 0,1.112 0,0C0,-1.113 -0.902,-2.014 -2.014,-2.014" style="fill:rgb(237,232,173);fill-rule:nonzero;"/>
        </g>
        <g transform="matrix(0,-0.612742,-0.612742,0,247.317,151.07)">
            <path d="M-1.444,-1.444C-2.242,-1.444 -2.888,-0.798 -2.888,-0.002C-2.888,0.797 -2.242,1.444 -1.444,1.444C-0.648,1.444 0,0.797 0,-0.002C0,-0.798 -0.648,-1.444 -1.444,-1.444" style="fill:rgb(237,232,173);fill-rule:nonzero;"/>
        </g>
        <g transform="matrix(0.609551,0.0624504,0.0624504,-0.609551,244.326,149.062)">
            <path d="M0.432,-0.451C3.008,0.481 8.666,-0.451 11.114,-3.608C7.931,2.547 2.17,4.942 0.432,11.843C-1.234,5.567 3.107,1.383 3.107,1.383C0.235,2.025 0.432,-0.451 0.432,-0.451" style="fill:rgb(255,0,94);fill-rule:nonzero;"/>
        </g>
        <g transform="matrix(0.612742,0,0,0.612742,203.435,172.361)">
            <path d="M0,-33.664C-2.163,-27.89 -0.668,-22.633 1.5,-19.45C5.285,-13.891 8.105,-13.234 9.11,-11.699C10.828,-9.075 5.548,-13.618 2.724,-10.19C2.724,-10.19 9.041,-10.108 18.797,-6.924C26.239,-4.495 30.768,-1.85 35.827,-1.252C46.443,0 46.209,-2.972 56.905,-4.098C56.905,-4.098 51.332,-6.897 46.443,-4.708C41.34,-2.422 41.677,-6.018 46.443,-6.351C43.155,-7.942 43.513,-6.136 34.976,-5.724C27.48,-5.362 25.732,-6.256 20,-8.547C14.269,-10.84 1.429,-17.435 5.735,-23.274C2.927,-24.276 1.527,-18.391 1.794,-22.633C2.157,-28.387 0.026,-27.473 0,-33.664" style="fill:rgb(237,232,173);fill-rule:nonzero;"/>
        </g>
        <g transform="matrix(-0.568976,0.227419,0.227419,0.568976,224.305,180.461)">
            <path d="M2.886,-26.562C-2.18,-27.048 -0.568,-17.759 -4.846,-14.15C-4.846,-14.15 1.044,4.691 2.886,-3.758C4.586,-11.561 9.453,-24.445 4.489,-22.461C1.747,-21.365 1.82,-25.84 2.886,-26.562" style="fill:rgb(125,102,135);fill-rule:nonzero;"/>
        </g>
        <g transform="matrix(0.612742,0,0,0.612742,213.553,180.561)">
            <path d="M0,-18.378C11.413,-15.393 15.656,-9.65 19.422,0C7.2,-2.378 5.872,-13.022 0,-18.378" style="fill:rgb(69,49,74);fill-rule:nonzero;"/>
        </g>
        <g transform="matrix(0.612742,0,0,0.612742,217.844,176.286)">
            <path d="M0,-7.356C3.224,-7.554 8.689,-3.132 9.167,0.198C-1.318,-0.161 -2.487,-7.203 0,-7.356" style="fill:rgb(255,0,94);fill-rule:nonzero;"/>
        </g>
        <g transform="matrix(0.612742,0,0,0.612742,221.01,172.372)">
            <path d="M0,3.777C-2.899,3.777 -3.389,0 -3.389,0C0.781,0.62 2.397,3.777 0,3.777" style="fill:rgb(237,232,173);fill-rule:nonzero;"/>
        </g>
        <g transform="matrix(0.612742,0,0,0.612742,214.908,183.096)">
            <path d="M0,-24.007C11.964,-21.747 16.813,-15.488 21.971,-9.783C16.542,-12.732 14.484,-15.028 14.484,-15.028C18.752,-10.059 21.753,-2.596 25.798,0C25.798,0 16.461,-5.991 11.814,-12.911C5.644,-22.099 0,-24.007 0,-24.007" style="fill:rgb(183,173,214);fill-rule:nonzero;"/>
        </g>
        <g transform="matrix(0,-0.612742,-0.612742,0,206.275,171.773)">
            <path d="M-1.346,-1.346C-2.09,-1.346 -2.692,-0.742 -2.692,0.001C-2.692,0.744 -2.09,1.346 -1.346,1.346C-0.602,1.346 0.001,0.744 0.001,0.001C0.001,-0.742 -0.602,-1.346 -1.346,-1.346" style="fill:rgb(237,232,173);fill-rule:nonzero;"/>
        </g>
        <g transform="matrix(0,-0.612742,-0.612742,0,220.706,180.562)">
            <path d="M-2.275,-2.275C-3.532,-2.275 -4.55,-1.256 -4.55,0C-4.55,1.257 -3.532,2.275 -2.275,2.275C-1.018,2.275 0,1.257 0,0C0,-1.256 -1.018,-2.275 -2.275,-2.275" style="fill:rgb(237,232,173);fill-rule:nonzero;"/>
        </g>
        <g transform="matrix(0,-0.612742,-0.612742,0,218.616,177.076)">
            <path d="M-1.154,-1.154C-1.793,-1.154 -2.309,-0.637 -2.309,0.001C-2.309,0.638 -1.793,1.154 -1.154,1.154C-0.516,1.154 0,0.638 0,0.001C0,-0.637 -0.516,-1.154 -1.154,-1.154" style="fill:rgb(237,232,173);fill-rule:nonzero;"/>
        </g>
        <g transform="matrix(0,-1.1678,-1.1678,0,236.474,128.12)">
            <path d="M-5.896,-5.896C-5.896,-1.474 -7.371,0 -11.792,0C-7.371,0 -5.896,1.474 -5.896,5.896C-5.896,1.474 -4.421,0 0,0C-4.421,0 -5.896,-1.474 -5.896,-5.896" style="fill:white;fill-rule:nonzero;"/>
        </g>
        <g transform="matrix(0.612742,0,0,0.612742,256.702,161.129)">
            <path d="M0,-5.963C0.414,-3.771 0,-1.279 -2.952,0C-1.575,-1.83 -0.367,-4.662 0,-5.963" style="fill:rgb(255,0,94);fill-rule:nonzero;"/>
        </g>
        <g transform="matrix(0.612742,0,0,0.612742,198.655,108.29)">
            <path d="M0,7.738C0.785,5.171 5.804,5.352 6.731,0C4.704,3.869 -0.498,0.826 0,7.738" style="fill:rgb(145,23,64);fill-rule:nonzero;"/>
        </g>
        <g transform="matrix(0.612742,0,0,0.612742,228.906,182.969)">
            <path d="M0,-10.011C7.592,-11.797 10.449,-0.5 12.126,1.786C8.042,-0.649 3.958,-8.067 0,-10.011" style="fill:rgb(125,102,135);fill-rule:nonzero;"/>
        </g>
        <g transform="matrix(0.612742,0,0,0.612742,183.097,171.517)">
            <path d="M0,-11.742C-5.23,-10.758 -6.285,-4.746 -4.403,0C-4.584,-5.473 0.342,-7.097 0,-11.742" style="fill:rgb(40,42,30);fill-rule:nonzero;"/>
        </g>
        <g transform="matrix(0.612742,0,0,0.612742,224.857,100.815)">
            <path d="M0,9.011C2.017,2.182 7.5,0 10.335,7.032C6.15,5.198 3.301,1.573 0,9.011" style="fill:rgb(145,23,64);fill-rule:nonzero;"/>
        </g>
        <g transform="matrix(0,-0.612742,-0.612742,0,302.16,121.256)">
            <path d="M-7.361,-7.361C-11.426,-7.361 -14.723,-4.064 -14.723,0C-14.723,4.066 -11.426,7.361 -7.361,7.361C-3.295,7.361 0,4.066 0,0C0,-4.064 -3.295,-7.361 -7.361,-7.361" style="fill:rgb(220,220,220);fill-opacity:0.44;fill-rule:nonzero;"/>
        </g>
        <g transform="matrix(0,-0.612742,-0.612742,0,263.743,173.273)">
            <path d="M-7.361,-7.361C-11.426,-7.361 -14.723,-4.064 -14.723,0C-14.723,4.066 -11.426,7.361 -7.361,7.361C-3.295,7.361 0,4.066 0,0C0,-4.064 -3.295,-7.361 -7.361,-7.361" style="fill:rgb(92,72,102);fill-rule:nonzero;"/>
        </g>
        <g transform="matrix(0,-0.943559,-0.943559,0,301.802,115.828)">
            <path d="M-10.162,-10.162C-10.162,-2.541 -12.703,0 -20.324,0C-12.703,0 -10.162,2.541 -10.162,10.162C-10.162,2.541 -7.621,0 0,0C-7.621,0 -10.162,-2.541 -10.162,-10.162" style="fill:white;fill-rule:nonzero;"/>
        </g>
        <g transform="matrix(0,-1.05616,-1.05616,0,263.783,169.378)">
            <path d="M-7.953,-7.953C-7.953,-1.988 -9.941,0 -15.906,0C-9.941,0 -7.953,1.988 -7.953,7.953C-7.953,1.988 -5.965,0 0,0C-5.965,0 -7.953,-1.988 -7.953,-7.953" style="fill:white;fill-rule:nonzero;"/>
        </g>
    </g>
    <g id="Porthole" transform="matrix(1.6,0,0,1.6,0,0)">
        <g transform="matrix(0.841076,0,0,-0.841076,23.7565,-30.4721)">
            <g>
                <g>
                    <path d="M249.903,-74.566L249.903,-53L52.076,-53L52.024,-53.001C52.024,-53.001 51.5,-53.025 50.584,-53.067C49.673,-53.105 48.353,-53.288 46.812,-53.665C43.732,-54.413 39.758,-56.307 36.787,-59.372C33.723,-62.341 31.783,-66.323 30.978,-69.451C30.57,-71.014 30.365,-72.36 30.305,-73.297C30.244,-74.237 30.209,-74.774 30.209,-74.774C30.209,-74.774 30.22,-75.367 30.229,-75.959C30.254,-76.551 30.279,-77.143 30.279,-77.143L30.281,-77.174L40.73,-205.265L40.736,-205.319C40.736,-205.319 40.801,-205.851 40.916,-206.778C41.042,-207.701 41.296,-209.03 41.796,-210.562C42.262,-212.107 43.052,-213.826 44.067,-215.554C45.122,-217.26 46.459,-218.933 48,-220.394C49.556,-221.836 51.306,-223.05 53.061,-223.979C54.836,-224.863 56.581,-225.524 58.132,-225.864C59.67,-226.24 60.99,-226.394 61.903,-226.439C62.819,-226.478 63.343,-226.5 63.343,-226.5L238.604,-226.5L238.654,-226.499C238.654,-226.499 239.178,-226.477 240.095,-226.438C241.007,-226.389 242.327,-226.238 243.865,-225.859C245.415,-225.517 247.16,-224.855 248.935,-223.97C250.689,-223.039 252.437,-221.822 253.993,-220.379C255.532,-218.916 256.866,-217.241 257.92,-215.535C258.934,-213.806 259.724,-212.087 260.187,-210.541C260.684,-209.009 260.94,-207.68 261.064,-206.757C261.178,-205.829 261.242,-205.298 261.242,-205.298L261.248,-205.249L271.696,-77.163L271.698,-77.121C271.698,-77.121 271.723,-76.529 271.747,-75.937L271.767,-74.752C271.767,-74.752 271.744,-74.034 271.609,-72.603C271.416,-71.186 271.081,-69.01 269.934,-66.371C268.803,-63.752 266.895,-60.617 263.589,-57.923C260.37,-55.208 255.522,-53.026 249.903,-53L249.903,-74.566C250.266,-74.589 250.494,-74.841 250.558,-75.019C250.646,-75.164 250.591,-75.265 250.622,-75.263C250.605,-75.264 250.602,-75.357 250.619,-75.358L250.618,-75.375L240.17,-203.462L240.168,-203.471C240.136,-203.479 240.146,-204.088 239.669,-204.511C239.215,-204.96 238.621,-204.901 238.611,-204.933L238.604,-204.934L63.367,-204.934C63.358,-204.9 62.762,-204.963 62.309,-204.513C61.833,-204.089 61.839,-203.481 61.81,-203.473L61.808,-203.47L51.359,-75.387L51.357,-75.359C51.374,-75.358 51.372,-75.265 51.354,-75.265C51.39,-75.255 51.337,-75.017 51.583,-74.783C51.796,-74.55 52.039,-74.602 52.071,-74.568L52.076,-74.567C52.076,-74.567 118.019,-74.567 249.903,-74.566Z" style="fill-rule:nonzero;"/>
                </g>
            </g>
        </g>
        <g transform="matrix(0.841076,0,0,-0.841076,23.7565,-35.8524)">
            <path d="M187.171,-75.299C183.421,-75.299 179.798,-76.66 176.978,-79.128L172.885,-82.709C171.089,-84.281 168.783,-85.147 166.396,-85.147L150.099,-85.147L150.099,-85.148L133.801,-85.148C131.415,-85.148 129.109,-84.282 127.313,-82.709L123.221,-79.129C120.399,-76.66 116.778,-75.299 113.027,-75.299L82.525,-75.299L82.525,-86.202L117.334,-86.202C120.374,-86.202 123.31,-87.31 125.591,-89.319L128.094,-91.52C130.054,-93.245 132.574,-94.196 135.185,-94.196L165.014,-94.196C167.624,-94.196 170.144,-93.244 172.104,-91.52L174.606,-89.318C176.889,-87.31 179.824,-86.202 182.865,-86.202L219.439,-86.202L219.439,-75.299L187.171,-75.299ZM166.32,-193.025L133.878,-193.025C131.664,-193.025 129.55,-193.942 128.036,-195.558L124.786,-199.029C123.163,-200.762 120.894,-201.745 118.519,-201.745L82.525,-201.745L82.525,-210.598L115.084,-210.598C117.923,-210.598 120.625,-209.382 122.508,-207.257L125.68,-203.678C127.595,-201.517 130.343,-200.28 133.23,-200.28L166.969,-200.28C169.854,-200.28 172.604,-201.516 174.517,-203.677L177.69,-207.257C179.573,-209.382 182.275,-210.598 185.115,-210.598L219.439,-210.598L219.439,-201.745L181.678,-201.745C179.304,-201.745 177.035,-200.762 175.412,-199.028L172.162,-195.558C170.649,-193.942 168.534,-193.025 166.32,-193.025Z" style="fill-rule:nonzero;"/>
        </g>
        <g transform="matrix(0.841076,0,0,-0.841076,23.7565,-35.8524)">
            <path d="M212.48,-75.299L212.48,-86.202L227.882,-86.202C231.304,-86.202 234.003,-89.113 233.746,-92.526L225.871,-196.866C225.663,-199.618 223.37,-201.745 220.611,-201.745L212.48,-201.745L212.48,-210.598L235.238,-210.598C239.108,-210.598 242.333,-207.63 242.654,-203.773L252.671,-83.365C253.031,-79.022 249.605,-75.299 245.248,-75.299L212.48,-75.299Z" style="fill-rule:nonzero;"/>
        </g>
        <g transform="matrix(0.841076,0,0,-0.841076,23.7565,-35.8524)">
            <path d="M54.95,-75.299C50.594,-75.299 47.166,-79.022 47.528,-83.365L57.544,-203.774C57.866,-207.63 61.089,-210.598 64.96,-210.598L87.672,-210.598L87.672,-205.527C87.651,-204.266 87.631,-203.006 87.611,-201.745L79.588,-201.745C76.829,-201.745 74.535,-199.618 74.327,-196.866L66.452,-92.526C66.195,-89.113 68.894,-86.202 72.317,-86.202L87.603,-86.202L87.603,-75.299L54.95,-75.299Z" style="fill-rule:nonzero;"/>
        </g>
        <g transform="matrix(0.841076,0,0,-0.841076,23.7565,-32.8044)">
            <g>
                <g>
                    <path d="M230.359,-81.136L230.359,-79.366L183.307,-79.366L183.276,-79.367C183.276,-79.367 182.652,-79.355 181.726,-79.462C180.798,-79.561 179.574,-79.831 178.414,-80.28C177.253,-80.729 176.168,-81.352 175.415,-81.9C174.656,-82.442 174.201,-82.867 174.201,-82.867L174.18,-82.886L171.618,-85.189L171.598,-85.206C171.598,-85.206 170.228,-86.48 168.486,-87.116C166.769,-87.817 164.903,-87.789 164.903,-87.789L164.876,-87.79L149.214,-87.79L149.214,-88.674L150.099,-87.79L135.086,-87.79C135.086,-87.79 133.22,-87.819 131.502,-87.119C129.761,-86.482 128.389,-85.211 128.389,-85.211L128.37,-85.193L125.808,-82.891L125.787,-82.872C125.787,-82.872 125.332,-82.447 124.574,-81.904C123.821,-81.356 122.736,-80.732 121.575,-80.283C120.415,-79.833 119.192,-79.563 118.265,-79.463C117.337,-79.355 116.713,-79.367 116.713,-79.367L116.684,-79.366L69.859,-79.366L69.83,-79.367C69.83,-79.367 69.649,-79.376 69.335,-79.393C69.021,-79.407 68.569,-79.468 68.047,-79.612C66.994,-79.871 65.681,-80.583 64.718,-81.66C63.746,-82.73 63.176,-84.1 63.008,-85.162C62.821,-86.225 62.905,-86.944 62.905,-86.944L62.905,-86.977L71.031,-196.927L71.034,-196.959C71.034,-196.959 71.056,-197.555 71.318,-198.407C71.567,-199.259 72.149,-200.329 73.015,-201.15C73.875,-201.976 74.979,-202.511 75.854,-202.707C76.726,-202.918 77.329,-202.892 77.329,-202.892L117.542,-202.892C117.542,-202.892 118.042,-202.903 118.784,-202.804C119.526,-202.714 120.502,-202.468 121.413,-202.062C122.325,-201.658 123.159,-201.097 123.724,-200.611C124.287,-200.135 124.639,-199.735 124.639,-199.735L124.659,-199.712L128.513,-194.998L128.53,-194.979C128.53,-194.979 128.756,-194.72 129.195,-194.347C129.623,-193.978 130.254,-193.556 130.942,-193.251C131.631,-192.945 132.365,-192.759 132.925,-192.692C133.485,-192.618 133.858,-192.627 133.858,-192.627L133.884,-192.626L166.303,-192.838L166.33,-192.838C166.33,-192.838 167.869,-192.813 169.251,-193.46C169.939,-193.767 170.57,-194.188 170.999,-194.557C171.435,-194.926 171.671,-195.196 171.671,-195.196L171.688,-195.213L175.542,-199.714L175.561,-199.737C175.561,-199.737 176.916,-201.274 178.779,-202.059C179.689,-202.465 180.665,-202.712 181.407,-202.803C182.149,-202.903 182.649,-202.891 182.649,-202.891L182.681,-202.892L222.862,-202.892C222.862,-202.892 223.465,-202.918 224.338,-202.708C225.212,-202.513 226.317,-201.98 227.178,-201.155C228.045,-200.334 228.629,-199.265 228.878,-198.413C229.142,-197.562 229.163,-196.965 229.163,-196.965L229.166,-196.933L237.292,-86.982L237.293,-86.951C237.293,-86.951 237.298,-86.712 237.309,-86.235C237.272,-85.761 237.245,-85.031 236.926,-84.122C236.626,-83.215 236.027,-82.134 234.972,-81.148C233.909,-80.199 232.305,-79.366 230.359,-79.366L230.359,-81.136C231.807,-81.138 232.984,-81.753 233.784,-82.461C234.572,-83.202 235.028,-84.012 235.251,-84.694C235.494,-85.377 235.507,-85.928 235.54,-86.285C235.532,-86.647 235.527,-86.827 235.527,-86.827L235.527,-86.852L227.401,-196.802L227.398,-196.826C227.398,-196.826 227.381,-197.264 227.189,-197.882C227.011,-198.503 226.584,-199.278 225.958,-199.873C225.332,-200.468 224.541,-200.852 223.917,-200.989C223.294,-201.138 222.861,-201.123 222.861,-201.123L182.682,-201.123L182.656,-201.122C182.656,-201.122 180.993,-201.146 179.5,-200.443C178.755,-200.112 178.073,-199.653 177.611,-199.253C177.141,-198.853 176.885,-198.561 176.885,-198.561L176.866,-198.541L173.014,-194.04L172.991,-194.016C172.991,-194.016 171.717,-192.579 169.969,-191.843C169.113,-191.463 168.198,-191.234 167.501,-191.15C166.804,-191.058 166.339,-191.069 166.339,-191.069L166.309,-191.068L133.89,-190.856L133.859,-190.856C133.859,-190.856 133.385,-190.845 132.69,-190.937C131.994,-191.022 131.079,-191.252 130.224,-191.633C129.368,-192.012 128.585,-192.538 128.055,-192.995C127.528,-193.439 127.196,-193.816 127.196,-193.816L127.175,-193.839L123.321,-198.553L123.304,-198.573C123.304,-198.573 123.057,-198.854 122.583,-199.257C122.12,-199.657 121.438,-200.114 120.693,-200.445C119.2,-201.148 117.537,-201.123 117.537,-201.123L77.333,-201.123C77.333,-201.123 76.899,-201.138 76.276,-200.988C75.652,-200.85 74.861,-200.466 74.237,-199.87C73.611,-199.274 73.186,-198.499 73.007,-197.877C72.816,-197.259 72.799,-196.821 72.799,-196.821L72.796,-196.796L64.671,-86.847L64.67,-86.822C64.67,-86.822 64.609,-86.276 64.75,-85.477C64.875,-84.677 65.305,-83.649 66.032,-82.845C66.757,-82.038 67.731,-81.509 68.51,-81.32C69.287,-81.114 69.832,-81.137 69.832,-81.137L69.859,-81.136L116.683,-81.136L116.709,-81.137C116.709,-81.137 117.251,-81.127 118.057,-81.22C118.863,-81.307 119.926,-81.543 120.936,-81.934C122.991,-82.685 124.604,-84.189 124.604,-84.189L124.625,-84.207L127.187,-86.509L127.209,-86.529C127.209,-86.529 128.816,-88.021 130.865,-88.77C131.873,-89.159 132.933,-89.392 133.738,-89.478C134.542,-89.57 135.083,-89.559 135.083,-89.559L135.113,-89.56L150.984,-89.56L150.984,-88.674C150.689,-88.97 150.394,-89.264 150.099,-89.559L164.906,-89.559C164.906,-89.559 165.447,-89.569 166.252,-89.476C167.057,-89.39 168.117,-89.156 169.124,-88.767C171.173,-88.018 172.779,-86.524 172.779,-86.524L172.802,-86.505L175.363,-84.203L175.384,-84.185C175.384,-84.185 176.998,-82.682 179.053,-81.931C180.062,-81.541 181.126,-81.305 181.932,-81.219C182.737,-81.126 183.279,-81.136 183.279,-81.136L230.359,-81.136Z" style="fill-rule:nonzero;"/>
                </g>
            </g>
        </g>
        <g transform="matrix(136.594,0,0,-136.594,81.7034,85.2407)">
            <g>
                <g>
                    <path d="M0.4,-0.285L0.6,-0.285C0.618,-0.285 0.636,-0.293 0.648,-0.306L0.668,-0.327C0.675,-0.334 0.685,-0.339 0.694,-0.339L0.934,-0.339C0.942,-0.339 0.949,-0.332 0.949,-0.324L0.998,0.318C0.998,0.323 0.997,0.329 0.993,0.332C0.989,0.336 0.984,0.339 0.979,0.339L0.702,0.339C0.687,0.339 0.673,0.333 0.662,0.324L0.647,0.31C0.632,0.297 0.612,0.289 0.592,0.289L0.408,0.289C0.388,0.289 0.368,0.297 0.353,0.31L0.338,0.324C0.327,0.333 0.313,0.339 0.298,0.339L0.021,0.339C0.016,0.339 0.011,0.336 0.007,0.332C0.003,0.329 0.002,0.323 0.002,0.318L0.051,-0.324C0.051,-0.332 0.058,-0.339 0.066,-0.339L0.306,-0.339C0.315,-0.339 0.325,-0.334 0.332,-0.327L0.352,-0.306C0.364,-0.293 0.382,-0.285 0.4,-0.285ZM0.934,-0.341L0.694,-0.341C0.684,-0.341 0.674,-0.336 0.667,-0.329L0.647,-0.307C0.635,-0.294 0.618,-0.287 0.6,-0.287L0.4,-0.287C0.382,-0.287 0.365,-0.294 0.353,-0.307L0.333,-0.329C0.326,-0.336 0.316,-0.341 0.306,-0.341L0.066,-0.341C0.057,-0.341 0.049,-0.334 0.049,-0.325L0,0.318C0,0.324 0.002,0.329 0.006,0.334C0.01,0.338 0.015,0.341 0.021,0.341L0.298,0.341C0.313,0.341 0.328,0.335 0.339,0.325L0.354,0.312C0.369,0.299 0.388,0.291 0.408,0.291L0.592,0.291C0.612,0.291 0.631,0.299 0.646,0.312L0.661,0.325C0.672,0.335 0.687,0.341 0.702,0.341L0.979,0.341C0.985,0.341 0.99,0.338 0.994,0.334C0.998,0.329 1,0.324 1,0.318L0.951,-0.325C0.951,-0.334 0.943,-0.341 0.934,-0.341Z" style="fill:white;fill-rule:nonzero;"/>
                </g>
            </g>
        </g>
        <g transform="matrix(133.651,0,0,-133.651,83.1753,85.2583)">
            <g>
                <g>
                    <path d="M0.398,-0.284L0.602,-0.284C0.624,-0.284 0.645,-0.293 0.66,-0.309L0.68,-0.332C0.685,-0.337 0.692,-0.34 0.699,-0.34L0.944,-0.34C0.946,-0.34 0.948,-0.338 0.948,-0.335L0.998,0.331C0.998,0.333 0.997,0.335 0.996,0.337C0.994,0.339 0.992,0.34 0.989,0.34L0.706,0.34C0.694,0.34 0.682,0.335 0.673,0.327L0.657,0.313C0.64,0.297 0.617,0.289 0.594,0.289L0.406,0.289C0.383,0.289 0.36,0.297 0.343,0.313L0.327,0.327C0.318,0.335 0.306,0.34 0.294,0.34L0.011,0.34C0.008,0.34 0.006,0.339 0.004,0.337C0.003,0.335 0.002,0.333 0.002,0.331L0.052,-0.335C0.052,-0.338 0.054,-0.34 0.056,-0.34L0.301,-0.34C0.308,-0.34 0.315,-0.337 0.32,-0.332L0.34,-0.309C0.355,-0.293 0.376,-0.284 0.398,-0.284ZM0.944,-0.342L0.699,-0.342C0.691,-0.342 0.684,-0.339 0.679,-0.333L0.658,-0.311C0.644,-0.295 0.623,-0.286 0.602,-0.286L0.398,-0.286C0.377,-0.286 0.356,-0.295 0.342,-0.311L0.321,-0.333C0.316,-0.339 0.309,-0.342 0.301,-0.342L0.056,-0.342C0.053,-0.342 0.05,-0.339 0.05,-0.336L0,0.33C0,0.333 0.001,0.336 0.003,0.338C0.005,0.341 0.007,0.342 0.011,0.342L0.294,0.342C0.307,0.342 0.319,0.337 0.328,0.329L0.344,0.315C0.361,0.299 0.383,0.291 0.406,0.291L0.594,0.291C0.617,0.291 0.639,0.299 0.656,0.315L0.672,0.329C0.681,0.337 0.694,0.342 0.706,0.342L0.989,0.342C0.992,0.342 0.995,0.341 0.997,0.338C0.999,0.336 1,0.333 1,0.33L0.95,-0.336C0.95,-0.339 0.947,-0.342 0.944,-0.342Z" style="fill:rgb(234,250,255);fill-rule:nonzero;"/>
                </g>
            </g>
        </g>
        <g transform="matrix(0.841076,0,0,-0.841076,23.7565,61.2994)">
            <path d="M50.408,-70.691L50.314,-71.052L50.222,-71.411C50.222,-71.411 50.191,-71.532 50.128,-71.77C52.4,-72.316 54.506,-72.301 56.402,-72.403C58.302,-72.487 60.023,-72.66 61.55,-73.043C64.633,-73.756 66.791,-75.373 68.324,-76.792C68.695,-77.165 69.044,-77.516 69.37,-77.843C69.68,-78.187 69.941,-78.535 70.196,-78.839C70.447,-79.149 70.678,-79.432 70.888,-79.69C71.075,-79.966 71.243,-80.216 71.393,-80.437C71.993,-81.323 72.292,-81.766 72.292,-81.766L72.307,-81.789C72.307,-81.789 72.834,-82.69 73.625,-84.039C74.351,-85.419 75.33,-87.264 76.029,-89.211C76.762,-91.143 77.255,-93.145 77.425,-94.657C77.611,-96.17 77.525,-97.164 77.525,-97.164C77.525,-97.164 77.506,-97.365 77.468,-97.764C77.423,-98.132 77.331,-98.82 77.093,-99.402C77.316,-99.511 77.427,-99.566 77.427,-99.566L77.761,-99.729L78.094,-99.892C78.094,-99.892 78.206,-99.947 78.428,-100.056C78.843,-99.04 78.867,-98.415 78.944,-97.938C78.988,-97.481 79.008,-97.252 79.008,-97.252C79.008,-97.252 79.104,-96.124 78.901,-94.484C78.716,-92.84 78.188,-90.712 77.422,-88.69C76.686,-86.648 75.676,-84.746 74.926,-83.32C74.113,-81.933 73.57,-81.007 73.57,-81.007L73.555,-80.983C73.555,-80.983 73.241,-80.518 72.613,-79.588C72.455,-79.357 72.278,-79.095 72.082,-78.805C71.86,-78.53 71.615,-78.23 71.348,-77.9C71.077,-77.576 70.801,-77.21 70.468,-76.843C70.118,-76.49 69.743,-76.113 69.341,-75.711C67.699,-74.18 65.282,-72.382 61.906,-71.6C60.242,-71.183 58.401,-71.003 56.472,-70.92C54.548,-70.821 52.505,-70.816 50.501,-70.332C50.439,-70.573 50.408,-70.691 50.408,-70.691Z" style="fill-rule:nonzero;"/>
        </g>
        <g transform="matrix(0.841076,0,0,-0.841076,23.7565,-37.0972)">
            <g>
                <g>
                    <path d="M243.74,-78.82L243.74,-75.403L186.589,-75.403L186.559,-75.404C186.559,-75.404 185.797,-75.389 184.665,-75.516C183.533,-75.634 182.039,-75.954 180.616,-76.489C179.194,-77.023 177.86,-77.769 176.931,-78.426C175.996,-79.077 175.433,-79.59 175.433,-79.59L175.411,-79.609L171.404,-83.115L171.386,-83.13C171.386,-83.13 170.306,-84.103 168.945,-84.586C167.604,-85.118 166.15,-85.095 166.15,-85.095L166.125,-85.096L148.391,-85.096L148.391,-86.804C148.96,-86.235 149.529,-85.666 150.099,-85.096L134.045,-85.096C134.045,-85.096 132.592,-85.118 131.25,-84.585C129.889,-84.102 128.811,-83.129 128.811,-83.129L128.792,-83.113L124.784,-79.607L124.762,-79.587C124.762,-79.587 124.199,-79.075 123.264,-78.424C122.335,-77.767 121,-77.023 119.578,-76.488C118.155,-75.953 116.661,-75.634 115.529,-75.516C114.396,-75.389 113.636,-75.404 113.636,-75.404L56.468,-75.404L56.436,-75.405C56.436,-75.405 56.204,-75.417 55.799,-75.437C55.395,-75.456 54.812,-75.533 54.138,-75.714C53.455,-75.871 52.701,-76.201 51.934,-76.615C51.185,-77.064 50.448,-77.641 49.81,-78.319C49.188,-79.01 48.671,-79.791 48.287,-80.575C47.937,-81.374 47.669,-82.152 47.569,-82.845C47.443,-83.532 47.416,-84.119 47.429,-84.523C47.442,-84.929 47.45,-85.161 47.45,-85.161L47.451,-85.194L57.308,-203.684L57.312,-203.717C57.312,-203.717 57.338,-203.924 57.385,-204.286C57.433,-204.647 57.536,-205.164 57.735,-205.759C58.102,-206.961 58.955,-208.455 60.194,-209.589C61.427,-210.731 62.988,-211.456 64.215,-211.722C64.825,-211.871 65.349,-211.931 65.712,-211.948C66.078,-211.964 66.286,-211.974 66.286,-211.974L66.318,-211.975L115.658,-211.975C115.658,-211.975 116.264,-211.988 117.163,-211.869C118.063,-211.759 119.244,-211.461 120.347,-210.963C121.451,-210.468 122.458,-209.78 123.137,-209.181C123.821,-208.586 124.213,-208.123 124.213,-208.123L124.233,-208.101L127.337,-204.599L127.355,-204.579C127.355,-204.579 127.636,-204.248 128.127,-203.822C128.612,-203.392 129.335,-202.901 130.125,-202.544C130.916,-202.189 131.762,-201.975 132.407,-201.897C133.05,-201.812 133.485,-201.821 133.485,-201.821L151.807,-201.821L151.807,-200.112C151.237,-200.682 150.668,-201.251 150.099,-201.82L166.691,-201.82L166.716,-201.821C166.716,-201.821 167.15,-201.812 167.795,-201.897C168.438,-201.975 169.285,-202.19 170.076,-202.545C170.866,-202.902 171.589,-203.393 172.074,-203.824C172.564,-204.25 172.846,-204.581 172.846,-204.581L172.863,-204.601L175.967,-208.104L175.988,-208.126C175.988,-208.126 176.38,-208.589 177.065,-209.183C177.744,-209.783 178.751,-210.47 179.854,-210.965C180.958,-211.462 182.141,-211.76 183.039,-211.869C183.938,-211.988 184.545,-211.974 184.545,-211.974L184.575,-211.975L233.884,-211.975L233.917,-211.974C233.917,-211.974 234.125,-211.964 234.49,-211.947C234.854,-211.929 235.378,-211.87 235.987,-211.72C237.215,-211.453 238.774,-210.727 240.008,-209.586C241.246,-208.451 242.098,-206.956 242.465,-205.754C242.663,-205.159 242.767,-204.642 242.813,-204.28C242.86,-203.918 242.887,-203.711 242.887,-203.711L242.891,-203.68L252.747,-85.19L252.749,-85.156C252.749,-85.156 252.758,-84.846 252.776,-84.227C252.733,-83.612 252.698,-82.663 252.281,-81.483C251.883,-80.309 251.096,-78.911 249.712,-77.659C248.326,-76.444 246.241,-75.406 243.74,-75.403L243.74,-78.82C245.308,-78.825 246.58,-79.468 247.453,-80.222C248.311,-81.008 248.81,-81.874 249.054,-82.602C249.316,-83.332 249.324,-83.922 249.361,-84.304C249.349,-84.691 249.343,-84.886 249.343,-84.886L249.343,-84.907L239.486,-203.397L239.483,-203.421C239.483,-203.421 239.457,-203.949 239.218,-204.691C238.994,-205.438 238.463,-206.362 237.693,-207.073C236.922,-207.781 235.956,-208.235 235.194,-208.398C234.435,-208.575 233.906,-208.557 233.906,-208.557L233.884,-208.558L184.549,-208.558C184.549,-208.558 182.812,-208.589 181.256,-207.85C179.671,-207.176 178.541,-205.856 178.541,-205.856L178.523,-205.837L175.42,-202.335L175.399,-202.313C175.399,-202.313 175.003,-201.843 174.308,-201.239C173.619,-200.631 172.598,-199.934 171.479,-199.431C170.36,-198.926 169.161,-198.623 168.249,-198.512C167.338,-198.391 166.723,-198.404 166.723,-198.404L148.391,-198.404L148.391,-200.112C148.96,-199.543 149.529,-198.975 150.099,-198.404L133.511,-198.404L133.48,-198.405C133.48,-198.405 132.865,-198.391 131.953,-198.511C131.041,-198.622 129.842,-198.925 128.723,-199.429C127.604,-199.933 126.582,-200.629 125.894,-201.237C125.199,-201.84 124.801,-202.31 124.801,-202.31L124.781,-202.332L121.677,-205.835L121.66,-205.854C121.66,-205.854 120.53,-207.175 118.945,-207.849C117.389,-208.588 115.652,-208.558 115.652,-208.558L115.627,-208.559L66.318,-208.559L66.294,-208.558C66.294,-208.558 65.766,-208.576 65.006,-208.398C64.245,-208.237 63.279,-207.783 62.507,-207.075C61.737,-206.364 61.205,-205.44 60.981,-204.694C60.741,-203.952 60.715,-203.424 60.715,-203.424L60.712,-203.4L50.855,-84.911L50.855,-84.889C50.855,-84.889 50.784,-84.302 50.932,-83.447C51.061,-82.59 51.533,-81.494 52.323,-80.633C53.116,-79.774 54.17,-79.215 55.013,-79.017C55.43,-78.904 55.792,-78.852 56.045,-78.844C56.299,-78.829 56.444,-78.821 56.444,-78.821L56.468,-78.82L113.631,-78.82C113.631,-78.82 114.239,-78.809 115.143,-78.91C116.047,-79.003 117.239,-79.259 118.375,-79.686C119.511,-80.113 120.577,-80.707 121.318,-81.232C122.064,-81.752 122.514,-82.16 122.514,-82.16L122.535,-82.178L126.542,-85.684L126.565,-85.704C126.565,-85.704 128.106,-87.094 130.048,-87.783C131.964,-88.543 134.038,-88.512 134.038,-88.512L151.807,-88.512L151.807,-86.804L150.099,-88.512L166.155,-88.512C166.155,-88.512 168.229,-88.544 170.146,-87.785C172.088,-87.095 173.629,-85.707 173.629,-85.707L173.653,-85.686L177.661,-82.18L177.682,-82.162C177.682,-82.162 178.131,-81.753 178.878,-81.233C179.619,-80.708 180.685,-80.114 181.819,-79.686C182.956,-79.26 184.147,-79.003 185.052,-78.91C185.956,-78.809 186.563,-78.82 186.563,-78.82L243.74,-78.82Z" style="fill-rule:nonzero;"/>
                </g>
            </g>
        </g>
        <g transform="matrix(0.841076,0,0,0.841076,236.272,134.493)">
            <path d="M0,-119.169L-10.018,1.24C-10.338,5.098 -13.563,8.064 -17.433,8.064L-67.556,8.064C-70.396,8.064 -73.098,6.849 -74.981,4.724L-78.153,1.144C-80.068,-1.017 -82.816,-2.253 -85.702,-2.253L-119.441,-2.253C-122.328,-2.253 -125.076,-1.016 -126.99,1.144L-130.163,4.724C-132.045,6.849 -134.749,8.064 -137.587,8.064L-187.711,8.064C-191.582,8.064 -194.805,5.098 -195.126,1.241L-205.143,-119.169C-205.504,-123.51 -202.078,-127.234 -197.721,-127.234L-139.643,-127.234C-135.894,-127.234 -132.271,-125.873 -129.45,-123.404L-125.357,-119.823C-123.562,-118.252 -121.256,-117.385 -118.87,-117.385L-102.572,-117.385L-102.572,-117.386L-86.274,-117.386C-83.888,-117.386 -81.582,-118.252 -79.786,-119.823L-75.693,-123.405C-72.872,-125.873 -69.25,-127.234 -65.5,-127.234L-7.423,-127.234C-3.065,-127.234 0.36,-123.511 0,-119.169M-2.687,-138.489L-202.457,-138.488C-210.847,-138.488 -217.447,-131.317 -216.751,-122.956L-206.164,4.352C-205.46,12.812 -198.388,19.32 -189.899,19.32L-15.244,19.319C-6.755,19.319 0.317,12.811 1.021,4.352L11.607,-122.956C12.303,-131.318 5.704,-138.489 -2.687,-138.489" style="fill:white;fill-rule:nonzero;"/>
        </g>
        <g transform="matrix(0.841076,0,0,-0.841076,23.7565,-35.8659)">
            <g>
                <g>
                    <path d="M246.515,-72.08L246.515,-68.609L182.226,-68.609C182.226,-68.609 180.323,-68.583 178.568,-69.28C176.788,-69.913 175.377,-71.188 175.377,-71.188L175.354,-71.208L168.903,-76.852L168.885,-76.868C168.885,-76.868 168.061,-77.61 167.022,-77.979C165.998,-78.385 164.889,-78.369 164.889,-78.369L164.863,-78.37L148.364,-78.37L148.364,-80.105C148.942,-79.526 149.521,-78.948 150.099,-78.37L135.31,-78.37C135.31,-78.37 134.201,-78.386 133.176,-77.98C132.137,-77.611 131.313,-76.868 131.313,-76.868L131.294,-76.852L124.844,-71.208L124.821,-71.188C124.821,-71.188 123.41,-69.913 121.63,-69.28C119.874,-68.583 117.973,-68.61 117.973,-68.61L117.94,-68.609L53.697,-68.609L53.667,-68.61C53.667,-68.61 53.361,-68.626 52.824,-68.653C52.289,-68.666 51.522,-68.782 50.625,-68.991C48.841,-69.422 46.522,-70.481 44.789,-72.246C42.99,-73.941 41.87,-76.225 41.397,-78.001C41.163,-78.892 41.032,-79.656 41.005,-80.193C40.965,-80.729 40.943,-81.036 40.943,-81.036L40.983,-82.396L40.985,-82.427L51.171,-204.883L51.175,-204.915C51.175,-204.915 51.215,-205.226 51.286,-205.771C51.359,-206.314 51.512,-207.093 51.813,-207.987C52.081,-208.894 52.569,-209.891 53.165,-210.908C53.799,-211.904 54.599,-212.883 55.516,-213.745C56.451,-214.589 57.499,-215.297 58.543,-215.848C59.608,-216.351 60.641,-216.757 61.569,-216.944C62.486,-217.164 63.273,-217.259 63.821,-217.28C64.37,-217.306 64.684,-217.319 64.684,-217.319L64.713,-217.32L119.018,-217.32L119.053,-217.319C119.053,-217.319 119.533,-217.33 120.244,-217.234C120.956,-217.145 121.891,-216.908 122.763,-216.514C123.636,-216.121 124.433,-215.576 124.97,-215.101C125.512,-214.631 125.822,-214.264 125.822,-214.264L125.842,-214.241L129.99,-209.559L130.007,-209.541C130.007,-209.541 131.03,-208.347 132.464,-207.736C133.873,-207.067 135.445,-207.095 135.445,-207.095L151.835,-207.095L151.835,-205.358C151.256,-205.936 150.678,-206.516 150.099,-207.094L164.728,-207.094L164.753,-207.095C164.753,-207.095 166.325,-207.067 167.733,-207.736C169.169,-208.347 170.191,-209.541 170.191,-209.541L170.208,-209.559L174.356,-214.241L174.377,-214.264C174.377,-214.264 174.687,-214.631 175.229,-215.101C175.766,-215.576 176.562,-216.121 177.436,-216.514C178.308,-216.908 179.243,-217.145 179.955,-217.234C180.666,-217.33 181.146,-217.319 181.146,-217.319L235.515,-217.319C235.515,-217.319 235.828,-217.305 236.377,-217.28C236.925,-217.259 237.713,-217.163 238.63,-216.943C239.558,-216.756 240.59,-216.35 241.655,-215.847C242.7,-215.296 243.747,-214.588 244.683,-213.744C245.6,-212.883 246.399,-211.903 247.034,-210.907C247.629,-209.89 248.117,-208.893 248.385,-207.986C248.687,-207.092 248.839,-206.313 248.912,-205.771C248.982,-205.225 249.023,-204.914 249.023,-204.914L249.027,-204.882L259.213,-82.426L259.215,-82.396L259.255,-81.035C259.162,-81.067 259.471,-79.312 258.186,-76.257C257.527,-74.766 256.419,-72.961 254.483,-71.425C252.604,-69.859 249.803,-68.642 246.515,-68.609L246.515,-72.08C248.916,-72.117 250.938,-72.981 252.308,-74.13C253.723,-75.246 254.527,-76.567 255.006,-77.649C255.945,-79.863 255.71,-81.14 255.785,-81.117L255.755,-82.112L255.754,-82.138L245.568,-204.592L245.564,-204.616C245.564,-204.616 245.533,-204.849 245.479,-205.255C245.428,-205.661 245.312,-206.239 245.087,-206.903C244.895,-207.58 244.521,-208.314 244.086,-209.074C243.611,-209.813 243.016,-210.542 242.335,-211.187C241.635,-211.814 240.855,-212.34 240.08,-212.754C239.285,-213.12 238.522,-213.434 237.831,-213.565C237.15,-213.729 236.565,-213.804 236.155,-213.815C235.746,-213.836 235.512,-213.848 235.512,-213.848L235.485,-213.849L181.181,-213.849L181.158,-213.848C181.158,-213.848 179.947,-213.866 178.863,-213.35C177.758,-212.879 176.972,-211.958 176.972,-211.958L176.954,-211.939L172.807,-207.258L172.785,-207.234C172.785,-207.234 172.418,-206.8 171.774,-206.243C171.138,-205.68 170.193,-205.036 169.158,-204.571C168.123,-204.104 167.015,-203.825 166.171,-203.722C165.328,-203.61 164.759,-203.623 164.759,-203.623L148.364,-203.623L148.364,-205.358C148.942,-204.78 149.521,-204.202 150.099,-203.623L135.471,-203.623L135.439,-203.624C135.439,-203.624 134.871,-203.61 134.027,-203.722C133.184,-203.825 132.075,-204.105 131.041,-204.571C130.006,-205.036 129.061,-205.681 128.424,-206.243C127.781,-206.8 127.414,-207.234 127.414,-207.234L127.392,-207.258L123.244,-211.939L123.227,-211.958C123.227,-211.958 122.439,-212.88 121.335,-213.35C120.25,-213.866 119.04,-213.849 119.04,-213.849L64.687,-213.849C64.687,-213.849 64.453,-213.837 64.042,-213.816C63.633,-213.804 63.048,-213.73 62.367,-213.566C61.676,-213.434 60.914,-213.12 60.118,-212.755C59.343,-212.34 58.563,-211.814 57.864,-211.188C57.183,-210.543 56.587,-209.814 56.112,-209.075C55.677,-208.315 55.303,-207.58 55.111,-206.903C54.885,-206.24 54.771,-205.661 54.719,-205.256C54.665,-204.85 54.633,-204.617 54.633,-204.617L54.63,-204.593L44.444,-82.139L44.443,-82.112L44.413,-81.118C44.413,-81.118 44.431,-80.895 44.462,-80.505C44.476,-80.114 44.579,-79.56 44.746,-78.914C45.091,-77.63 45.897,-75.962 47.216,-74.728C48.476,-73.435 50.166,-72.679 51.456,-72.361C52.107,-72.212 52.663,-72.12 53.056,-72.116C53.447,-72.094 53.671,-72.081 53.671,-72.081L53.697,-72.08L117.94,-72.08L117.963,-72.081C117.963,-72.081 119.233,-72.063 120.407,-72.529C121.596,-72.952 122.539,-73.804 122.539,-73.804L122.558,-73.82L129.009,-79.465L129.033,-79.486C129.033,-79.486 130.326,-80.651 131.955,-81.229C133.562,-81.866 135.302,-81.84 135.302,-81.84L135.334,-81.841L151.835,-81.841L151.835,-80.105C151.256,-80.684 150.678,-81.262 150.099,-81.84L164.896,-81.84C164.896,-81.84 166.636,-81.866 168.242,-81.229C169.872,-80.65 171.164,-79.485 171.164,-79.485L171.189,-79.464L177.64,-73.82L177.659,-73.803C177.659,-73.803 178.602,-72.952 179.791,-72.528C180.964,-72.062 182.234,-72.08 182.234,-72.08L246.515,-72.08Z" style="fill-rule:nonzero;"/>
                </g>
            </g>
        </g>
        <g transform="matrix(0.841076,0,0,0.841076,232.493,31.9593)">
            <path d="M0,124.647C-0.515,130.837 -5.689,135.6 -11.901,135.6L-66.717,135.6C-68.844,135.6 -70.869,134.688 -72.279,133.096L-76.483,128.352C-78.213,126.399 -80.697,125.282 -83.306,125.282L-112.852,125.282C-115.46,125.282 -117.944,126.4 -119.674,128.352L-123.877,133.096C-125.288,134.689 -127.313,135.6 -129.44,135.6L-184.256,135.6C-190.468,135.6 -195.642,130.838 -196.157,124.648L-206.436,1.076C-206.974,-5.4 -201.864,-10.953 -195.366,-10.953L-130.524,-10.953C-128.392,-10.953 -126.333,-10.179 -124.728,-8.775L-118.199,-3.062C-116.756,-1.8 -114.905,-1.104 -112.989,-1.104L-83.168,-1.104C-81.252,-1.104 -79.4,-1.8 -77.959,-3.062L-71.429,-8.775C-69.825,-10.179 -67.766,-10.953 -65.633,-10.953L-0.791,-10.953C5.706,-10.953 10.816,-5.4 10.278,1.075L0,124.647ZM1.807,-16.581L-197.964,-16.581C-206.354,-16.581 -212.954,-9.41 -212.258,-1.048L-201.67,126.259C-200.967,134.72 -193.895,141.228 -185.406,141.228L-10.751,141.228C-2.262,141.228 4.811,134.719 5.514,126.259L16.101,-1.048C16.796,-9.41 10.197,-16.581 1.807,-16.581" style="fill:rgb(46,16,82);fill-rule:nonzero;"/>
        </g>
    </g>
    <g id="Text" transform="matrix(1.6,0,0,1.6,0,0)">
        <g transform="matrix(2.43205,0,0,2.43205,-39.0557,-250.879)">
            <g transform="matrix(12,0,0,12,27.3504,181.763)">
                <path d="M0.301,0.014C0.249,0.014 0.204,0.003 0.166,-0.021C0.128,-0.044 0.099,-0.077 0.079,-0.12C0.058,-0.163 0.048,-0.214 0.048,-0.272C0.048,-0.331 0.058,-0.382 0.079,-0.425C0.1,-0.468 0.129,-0.501 0.167,-0.525C0.205,-0.548 0.251,-0.56 0.303,-0.56C0.355,-0.56 0.4,-0.549 0.437,-0.526C0.474,-0.503 0.503,-0.47 0.524,-0.427C0.544,-0.385 0.554,-0.334 0.554,-0.275C0.554,-0.216 0.544,-0.164 0.523,-0.121C0.503,-0.078 0.473,-0.044 0.436,-0.021C0.398,0.002 0.353,0.014 0.301,0.014ZM0.301,-0.102C0.335,-0.102 0.361,-0.117 0.381,-0.148C0.401,-0.179 0.411,-0.221 0.411,-0.273C0.411,-0.326 0.401,-0.367 0.381,-0.398C0.361,-0.429 0.335,-0.444 0.301,-0.444C0.267,-0.444 0.241,-0.428 0.221,-0.398C0.201,-0.367 0.191,-0.325 0.191,-0.273C0.191,-0.221 0.201,-0.179 0.221,-0.148C0.241,-0.117 0.267,-0.102 0.301,-0.102Z" style="fill:rgb(13,13,13);fill-rule:nonzero;"/>
            </g>
            <g transform="matrix(12,0,0,12,34.575,181.763)">
                <path d="M0.361,0.014C0.295,0.014 0.246,-0.018 0.216,-0.081L0.202,0L0.073,0L0.073,-0.76L0.216,-0.76L0.216,-0.469C0.25,-0.53 0.299,-0.56 0.361,-0.56C0.423,-0.56 0.471,-0.535 0.506,-0.484C0.541,-0.434 0.558,-0.363 0.558,-0.273C0.558,-0.184 0.541,-0.113 0.506,-0.062C0.471,-0.011 0.423,0.014 0.361,0.014ZM0.316,-0.103C0.346,-0.103 0.37,-0.119 0.388,-0.15C0.406,-0.181 0.415,-0.222 0.415,-0.275C0.415,-0.326 0.406,-0.366 0.389,-0.396C0.372,-0.426 0.348,-0.441 0.317,-0.441C0.286,-0.441 0.262,-0.426 0.243,-0.395C0.225,-0.364 0.216,-0.323 0.216,-0.272C0.216,-0.221 0.225,-0.18 0.243,-0.149C0.261,-0.118 0.286,-0.103 0.316,-0.103Z" style="fill:rgb(13,13,13);fill-rule:nonzero;"/>
            </g>
            <g transform="matrix(12,0,0,12,41.7996,181.763)">
                <path d="M0.297,0.014C0.236,0.014 0.168,0.003 0.093,-0.02L0.093,-0.145C0.157,-0.108 0.221,-0.09 0.286,-0.09C0.353,-0.09 0.386,-0.11 0.386,-0.149C0.386,-0.167 0.378,-0.181 0.362,-0.192C0.346,-0.203 0.319,-0.212 0.281,-0.22L0.241,-0.229C0.136,-0.252 0.084,-0.306 0.084,-0.391C0.084,-0.445 0.103,-0.486 0.142,-0.516C0.181,-0.545 0.238,-0.56 0.312,-0.56C0.34,-0.56 0.369,-0.558 0.397,-0.553C0.425,-0.548 0.454,-0.54 0.484,-0.53L0.484,-0.405C0.455,-0.423 0.428,-0.436 0.402,-0.444C0.375,-0.452 0.348,-0.456 0.321,-0.456C0.288,-0.456 0.263,-0.451 0.246,-0.442C0.228,-0.432 0.219,-0.42 0.219,-0.404C0.219,-0.389 0.227,-0.377 0.244,-0.366C0.26,-0.355 0.287,-0.346 0.324,-0.337L0.37,-0.326C0.422,-0.314 0.46,-0.294 0.485,-0.267C0.509,-0.239 0.521,-0.203 0.521,-0.158C0.521,-0.043 0.446,0.014 0.297,0.014Z" style="fill:rgb(13,13,13);fill-rule:nonzero;"/>
            </g>
            <g transform="matrix(12,0,0,12,49.0242,181.763)">
                <path d="M0.22,-0.612C0.21,-0.612 0.206,-0.617 0.206,-0.626L0.206,-0.764C0.206,-0.774 0.21,-0.779 0.22,-0.779L0.334,-0.779C0.344,-0.779 0.349,-0.774 0.349,-0.764L0.349,-0.626C0.349,-0.617 0.344,-0.612 0.334,-0.612L0.22,-0.612ZM0.396,0.006C0.329,0.006 0.28,-0.012 0.25,-0.048C0.22,-0.083 0.206,-0.141 0.206,-0.222L0.206,-0.437L0.09,-0.437L0.09,-0.547L0.349,-0.547L0.349,-0.222C0.349,-0.18 0.355,-0.15 0.369,-0.131C0.382,-0.113 0.405,-0.104 0.437,-0.104L0.551,-0.104L0.551,0.006L0.396,0.006Z" style="fill:rgb(13,13,13);fill-rule:nonzero;"/>
            </g>
            <g transform="matrix(12,0,0,12,56.2488,181.763)">
                <path d="M0.241,0.014C0.179,0.014 0.131,-0.011 0.096,-0.062C0.061,-0.113 0.044,-0.183 0.044,-0.272C0.044,-0.363 0.062,-0.433 0.097,-0.484C0.132,-0.535 0.18,-0.56 0.242,-0.56C0.303,-0.56 0.351,-0.53 0.386,-0.469L0.386,-0.76L0.529,-0.76L0.529,0L0.4,0L0.386,-0.081C0.356,-0.018 0.307,0.014 0.241,0.014ZM0.286,-0.103C0.316,-0.103 0.341,-0.118 0.359,-0.149C0.377,-0.18 0.386,-0.221 0.386,-0.272C0.386,-0.323 0.377,-0.364 0.359,-0.395C0.34,-0.426 0.316,-0.441 0.285,-0.441C0.254,-0.441 0.231,-0.426 0.213,-0.396C0.196,-0.366 0.187,-0.326 0.187,-0.275C0.187,-0.222 0.196,-0.181 0.214,-0.15C0.232,-0.119 0.256,-0.103 0.286,-0.103Z" style="fill:rgb(13,13,13);fill-rule:nonzero;"/>
            </g>
            <g transform="matrix(12,0,0,12,63.4734,181.763)">
                <path d="M0.22,-0.612C0.21,-0.612 0.206,-0.617 0.206,-0.626L0.206,-0.764C0.206,-0.774 0.21,-0.779 0.22,-0.779L0.334,-0.779C0.344,-0.779 0.349,-0.774 0.349,-0.764L0.349,-0.626C0.349,-0.617 0.344,-0.612 0.334,-0.612L0.22,-0.612ZM0.396,0.006C0.329,0.006 0.28,-0.012 0.25,-0.048C0.22,-0.083 0.206,-0.141 0.206,-0.222L0.206,-0.437L0.09,-0.437L0.09,-0.547L0.349,-0.547L0.349,-0.222C0.349,-0.18 0.355,-0.15 0.369,-0.131C0.382,-0.113 0.405,-0.104 0.437,-0.104L0.551,-0.104L0.551,0.006L0.396,0.006Z" style="fill:rgb(13,13,13);fill-rule:nonzero;"/>
            </g>
            <g transform="matrix(12,0,0,12,70.698,181.763)">
                <path d="M0.236,0.014C0.18,0.014 0.134,-0.002 0.099,-0.034C0.064,-0.067 0.046,-0.113 0.046,-0.174C0.046,-0.213 0.053,-0.244 0.067,-0.268C0.081,-0.293 0.1,-0.311 0.124,-0.325C0.148,-0.338 0.175,-0.347 0.205,-0.352C0.235,-0.357 0.267,-0.36 0.3,-0.36L0.399,-0.36L0.399,-0.384C0.399,-0.403 0.394,-0.418 0.384,-0.428C0.374,-0.438 0.361,-0.445 0.344,-0.449C0.328,-0.452 0.312,-0.454 0.295,-0.454C0.26,-0.454 0.227,-0.449 0.196,-0.44C0.164,-0.431 0.132,-0.417 0.101,-0.4L0.101,-0.522C0.134,-0.536 0.168,-0.545 0.201,-0.552C0.235,-0.558 0.269,-0.561 0.303,-0.561C0.363,-0.561 0.41,-0.552 0.445,-0.535C0.48,-0.518 0.504,-0.491 0.519,-0.456C0.534,-0.42 0.542,-0.375 0.542,-0.32C0.542,-0.307 0.541,-0.291 0.541,-0.271C0.54,-0.251 0.54,-0.231 0.54,-0.211L0.54,-0.162C0.539,-0.146 0.539,-0.133 0.539,-0.122C0.539,-0.113 0.54,-0.1 0.541,-0.085C0.542,-0.07 0.544,-0.055 0.547,-0.039C0.551,-0.023 0.556,-0.01 0.564,0L0.422,0C0.416,-0.01 0.412,-0.02 0.409,-0.029C0.406,-0.038 0.404,-0.049 0.402,-0.061C0.383,-0.035 0.359,-0.016 0.33,-0.004C0.302,0.008 0.27,0.014 0.236,0.014ZM0.283,-0.085C0.313,-0.085 0.337,-0.093 0.353,-0.11C0.37,-0.126 0.382,-0.147 0.389,-0.172C0.396,-0.197 0.399,-0.222 0.399,-0.247L0.399,-0.257L0.342,-0.257C0.32,-0.257 0.298,-0.255 0.275,-0.252C0.253,-0.249 0.235,-0.241 0.22,-0.229C0.206,-0.217 0.199,-0.197 0.199,-0.169C0.199,-0.142 0.206,-0.122 0.221,-0.107C0.236,-0.092 0.257,-0.085 0.283,-0.085Z" style="fill:rgb(13,13,13);fill-rule:nonzero;"/>
            </g>
            <g transform="matrix(12,0,0,12,77.9226,181.763)">
                <path d="M0.084,-0.547L0.212,-0.547L0.226,-0.465C0.236,-0.495 0.253,-0.519 0.278,-0.535C0.303,-0.552 0.333,-0.56 0.368,-0.56C0.418,-0.56 0.457,-0.543 0.483,-0.508C0.51,-0.473 0.523,-0.422 0.523,-0.355L0.523,0L0.381,0L0.381,-0.333C0.381,-0.371 0.375,-0.399 0.365,-0.417C0.354,-0.435 0.337,-0.444 0.314,-0.444C0.286,-0.444 0.265,-0.432 0.249,-0.409C0.234,-0.385 0.226,-0.353 0.226,-0.313L0.226,0L0.084,0L0.084,-0.547Z" style="fill:rgb(13,13,13);fill-rule:nonzero;"/>
            </g>
            <g transform="matrix(12,0,0,12,85.1472,181.763)">
                <path d="M0.439,-0.729L0.547,-0.729L0.163,0.093L0.055,0.093L0.439,-0.729Z" style="fill:rgb(13,13,13);fill-rule:nonzero;"/>
            </g>
            <g transform="matrix(12,0,0,12,92.3719,181.763)">
                <path d="M0.301,0.014C0.249,0.014 0.204,0.003 0.166,-0.021C0.128,-0.044 0.099,-0.077 0.079,-0.12C0.058,-0.163 0.048,-0.214 0.048,-0.272C0.048,-0.331 0.058,-0.382 0.079,-0.425C0.1,-0.468 0.129,-0.501 0.167,-0.525C0.205,-0.548 0.251,-0.56 0.303,-0.56C0.355,-0.56 0.4,-0.549 0.437,-0.526C0.474,-0.503 0.503,-0.47 0.524,-0.427C0.544,-0.385 0.554,-0.334 0.554,-0.275C0.554,-0.216 0.544,-0.164 0.523,-0.121C0.503,-0.078 0.473,-0.044 0.436,-0.021C0.398,0.002 0.353,0.014 0.301,0.014ZM0.301,-0.102C0.335,-0.102 0.361,-0.117 0.381,-0.148C0.401,-0.179 0.411,-0.221 0.411,-0.273C0.411,-0.326 0.401,-0.367 0.381,-0.398C0.361,-0.429 0.335,-0.444 0.301,-0.444C0.267,-0.444 0.241,-0.428 0.221,-0.398C0.201,-0.367 0.191,-0.325 0.191,-0.273C0.191,-0.221 0.201,-0.179 0.221,-0.148C0.241,-0.117 0.267,-0.102 0.301,-0.102Z" style="fill:rgb(13,13,13);fill-rule:nonzero;"/>
            </g>
            <g transform="matrix(12,0,0,12,99.5965,181.763)">
                <path d="M0.118,-0.547L0.247,-0.547L0.261,-0.462C0.275,-0.493 0.296,-0.517 0.325,-0.534C0.354,-0.551 0.388,-0.56 0.426,-0.56C0.466,-0.56 0.503,-0.551 0.538,-0.532L0.538,-0.396C0.506,-0.425 0.465,-0.439 0.414,-0.439C0.372,-0.439 0.339,-0.43 0.313,-0.411C0.287,-0.392 0.271,-0.365 0.265,-0.329C0.264,-0.321 0.262,-0.31 0.262,-0.298C0.261,-0.286 0.261,-0.271 0.261,-0.252L0.261,0L0.118,0L0.118,-0.547Z" style="fill:rgb(13,13,13);fill-rule:nonzero;"/>
            </g>
            <g transform="matrix(12,0,0,12,106.821,181.763)">
                <path d="M0.22,-0.612C0.21,-0.612 0.206,-0.617 0.206,-0.626L0.206,-0.764C0.206,-0.774 0.21,-0.779 0.22,-0.779L0.334,-0.779C0.344,-0.779 0.349,-0.774 0.349,-0.764L0.349,-0.626C0.349,-0.617 0.344,-0.612 0.334,-0.612L0.22,-0.612ZM0.396,0.006C0.329,0.006 0.28,-0.012 0.25,-0.048C0.22,-0.083 0.206,-0.141 0.206,-0.222L0.206,-0.437L0.09,-0.437L0.09,-0.547L0.349,-0.547L0.349,-0.222C0.349,-0.18 0.355,-0.15 0.369,-0.131C0.382,-0.113 0.405,-0.104 0.437,-0.104L0.551,-0.104L0.551,0.006L0.396,0.006Z" style="fill:rgb(13,13,13);fill-rule:nonzero;"/>
            </g>
            <g transform="matrix(12,0,0,12,114.046,181.763)">
                <path d="M0.301,0.014C0.249,0.014 0.204,0.003 0.166,-0.021C0.128,-0.044 0.099,-0.077 0.079,-0.12C0.058,-0.163 0.048,-0.214 0.048,-0.272C0.048,-0.331 0.058,-0.382 0.079,-0.425C0.1,-0.468 0.129,-0.501 0.167,-0.525C0.205,-0.548 0.251,-0.56 0.303,-0.56C0.355,-0.56 0.4,-0.549 0.437,-0.526C0.474,-0.503 0.503,-0.47 0.524,-0.427C0.544,-0.385 0.554,-0.334 0.554,-0.275C0.554,-0.216 0.544,-0.164 0.523,-0.121C0.503,-0.078 0.473,-0.044 0.436,-0.021C0.398,0.002 0.353,0.014 0.301,0.014ZM0.301,-0.102C0.335,-0.102 0.361,-0.117 0.381,-0.148C0.401,-0.179 0.411,-0.221 0.411,-0.273C0.411,-0.326 0.401,-0.367 0.381,-0.398C0.361,-0.429 0.335,-0.444 0.301,-0.444C0.267,-0.444 0.241,-0.428 0.221,-0.398C0.201,-0.367 0.191,-0.325 0.191,-0.273C0.191,-0.221 0.201,-0.179 0.221,-0.148C0.241,-0.117 0.267,-0.102 0.301,-0.102Z" style="fill:rgb(13,13,13);fill-rule:nonzero;"/>
            </g>
            <g transform="matrix(12,0,0,12,121.27,181.763)">
                <path d="M0.084,-0.547L0.212,-0.547L0.226,-0.465C0.236,-0.495 0.253,-0.519 0.278,-0.535C0.303,-0.552 0.333,-0.56 0.368,-0.56C0.418,-0.56 0.457,-0.543 0.483,-0.508C0.51,-0.473 0.523,-0.422 0.523,-0.355L0.523,0L0.381,0L0.381,-0.333C0.381,-0.371 0.375,-0.399 0.365,-0.417C0.354,-0.435 0.337,-0.444 0.314,-0.444C0.286,-0.444 0.265,-0.432 0.249,-0.409C0.234,-0.385 0.226,-0.353 0.226,-0.313L0.226,0L0.084,0L0.084,-0.547Z" style="fill:rgb(13,13,13);fill-rule:nonzero;"/>
            </g>
        </g>
        <g transform="matrix(2.0995,0,0,2.0995,-105.888,-201.198)">
            <g transform="matrix(8,0,0,8,82.9559,198.269)">
                <path d="M0.415,0L0.44,0C0.438,-0.025 0.437,-0.046 0.437,-0.076L0.437,-0.345C0.437,-0.471 0.38,-0.528 0.256,-0.528C0.216,-0.528 0.182,-0.52 0.151,-0.504C0.127,-0.492 0.105,-0.475 0.084,-0.454L0.098,-0.436C0.114,-0.454 0.134,-0.471 0.159,-0.484C0.187,-0.498 0.217,-0.507 0.254,-0.507C0.365,-0.507 0.414,-0.458 0.414,-0.342L0.414,-0.293C0.393,-0.295 0.368,-0.296 0.33,-0.296C0.138,-0.296 0.045,-0.242 0.045,-0.13C0.045,-0.042 0.109,0.01 0.219,0.01C0.309,0.01 0.38,-0.036 0.418,-0.12L0.42,-0.12C0.417,-0.096 0.415,-0.069 0.415,-0.046L0.415,0ZM0.414,-0.141C0.375,-0.055 0.31,-0.011 0.219,-0.011C0.122,-0.011 0.067,-0.054 0.067,-0.13C0.067,-0.23 0.15,-0.276 0.33,-0.276C0.367,-0.276 0.392,-0.275 0.414,-0.273L0.414,-0.141Z" style="fill:rgb(13,13,13);fill-rule:nonzero;"/>
            </g>
            <g transform="matrix(8,0,0,8,88.9959,198.269)">
                <path d="M0.518,-0.685C0.518,-0.72 0.519,-0.739 0.521,-0.76L0.492,-0.76C0.494,-0.739 0.495,-0.72 0.495,-0.685L0.495,-0.459C0.495,-0.421 0.497,-0.378 0.5,-0.364L0.497,-0.364C0.468,-0.468 0.392,-0.531 0.286,-0.531C0.148,-0.531 0.055,-0.423 0.055,-0.262C0.055,-0.097 0.146,0.01 0.286,0.01C0.393,0.01 0.469,-0.051 0.498,-0.156L0.5,-0.156C0.497,-0.134 0.495,-0.106 0.495,-0.081L0.495,0.001L0.521,0C0.519,-0.021 0.518,-0.041 0.518,-0.075L0.518,-0.685ZM0.286,-0.011C0.158,-0.011 0.078,-0.109 0.078,-0.262C0.078,-0.414 0.158,-0.51 0.286,-0.51C0.413,-0.51 0.495,-0.413 0.495,-0.262C0.495,-0.107 0.415,-0.011 0.286,-0.011Z" style="fill:rgb(13,13,13);fill-rule:nonzero;"/>
            </g>
            <g transform="matrix(8,0,0,8,93.9239,198.269)">
                <path d="M0.511,-0.268L0.511,-0.286C0.511,-0.444 0.432,-0.533 0.292,-0.533C0.145,-0.533 0.055,-0.431 0.055,-0.263C0.055,-0.101 0.155,0.01 0.3,0.01C0.361,0.01 0.418,-0.009 0.46,-0.043C0.473,-0.053 0.489,-0.068 0.498,-0.079L0.482,-0.094C0.471,-0.079 0.458,-0.066 0.442,-0.054C0.404,-0.026 0.353,-0.011 0.3,-0.011C0.166,-0.011 0.078,-0.111 0.078,-0.263L0.078,-0.268L0.511,-0.268ZM0.079,-0.288C0.087,-0.428 0.166,-0.512 0.291,-0.512C0.418,-0.512 0.488,-0.432 0.488,-0.288L0.079,-0.288Z" style="fill:rgb(13,13,13);fill-rule:nonzero;"/>
            </g>
            <g transform="matrix(8,0,0,8,98.4519,198.269)">
                <path d="M0.478,-0.093C0.468,-0.079 0.457,-0.069 0.436,-0.052C0.4,-0.025 0.35,-0.011 0.297,-0.011C0.165,-0.011 0.078,-0.11 0.078,-0.26C0.078,-0.411 0.163,-0.506 0.297,-0.506C0.339,-0.506 0.378,-0.499 0.41,-0.479C0.436,-0.463 0.453,-0.447 0.468,-0.426L0.486,-0.443C0.471,-0.462 0.451,-0.479 0.428,-0.494C0.391,-0.517 0.347,-0.527 0.298,-0.527C0.15,-0.527 0.055,-0.422 0.055,-0.26C0.055,-0.1 0.154,0.01 0.297,0.01C0.357,0.01 0.413,-0.008 0.456,-0.042C0.471,-0.054 0.483,-0.065 0.494,-0.077L0.478,-0.093Z" style="fill:rgb(13,13,13);fill-rule:nonzero;"/>
            </g>
            <g transform="matrix(8,0,0,8,102.724,198.269)">
                <path d="M0.105,-0.76C0.107,-0.739 0.108,-0.72 0.108,-0.685L0.108,-0.075C0.108,-0.041 0.107,-0.021 0.105,0L0.134,0C0.132,-0.021 0.131,-0.041 0.131,-0.075L0.131,-0.685C0.131,-0.72 0.132,-0.739 0.134,-0.76L0.105,-0.76Z" style="fill:rgb(13,13,13);fill-rule:nonzero;"/>
            </g>
            <g transform="matrix(8,0,0,8,104.636,198.269)">
                <path d="M0.415,0L0.44,0C0.438,-0.025 0.437,-0.046 0.437,-0.076L0.437,-0.345C0.437,-0.471 0.38,-0.528 0.256,-0.528C0.216,-0.528 0.182,-0.52 0.151,-0.504C0.127,-0.492 0.105,-0.475 0.084,-0.454L0.098,-0.436C0.114,-0.454 0.134,-0.471 0.159,-0.484C0.187,-0.498 0.217,-0.507 0.254,-0.507C0.365,-0.507 0.414,-0.458 0.414,-0.342L0.414,-0.293C0.393,-0.295 0.368,-0.296 0.33,-0.296C0.138,-0.296 0.045,-0.242 0.045,-0.13C0.045,-0.042 0.109,0.01 0.219,0.01C0.309,0.01 0.38,-0.036 0.418,-0.12L0.42,-0.12C0.417,-0.096 0.415,-0.069 0.415,-0.046L0.415,0ZM0.414,-0.141C0.375,-0.055 0.31,-0.011 0.219,-0.011C0.122,-0.011 0.067,-0.054 0.067,-0.13C0.067,-0.23 0.15,-0.276 0.33,-0.276C0.367,-0.276 0.392,-0.275 0.414,-0.273L0.414,-0.141Z" style="fill:rgb(13,13,13);fill-rule:nonzero;"/>
            </g>
            <g transform="matrix(8,0,0,8,108.916,198.269)">
                <path d="M0.115,-0.392C0.118,-0.41 0.12,-0.448 0.12,-0.481L0.12,-0.52L0.094,-0.52C0.096,-0.499 0.097,-0.48 0.097,-0.445L0.097,-0.075C0.097,-0.041 0.096,-0.021 0.094,0L0.123,0C0.121,-0.021 0.12,-0.041 0.12,-0.075L0.12,-0.348C0.138,-0.442 0.205,-0.508 0.283,-0.508C0.312,-0.508 0.335,-0.503 0.361,-0.492L0.369,-0.514C0.35,-0.524 0.321,-0.529 0.29,-0.529C0.211,-0.529 0.144,-0.474 0.117,-0.392L0.115,-0.392Z" style="fill:rgb(13,13,13);fill-rule:nonzero;"/>
            </g>
            <g transform="matrix(8,0,0,8,111.788,198.269)">
                <path d="M0.415,0L0.44,0C0.438,-0.025 0.437,-0.046 0.437,-0.076L0.437,-0.345C0.437,-0.471 0.38,-0.528 0.256,-0.528C0.216,-0.528 0.182,-0.52 0.151,-0.504C0.127,-0.492 0.105,-0.475 0.084,-0.454L0.098,-0.436C0.114,-0.454 0.134,-0.471 0.159,-0.484C0.187,-0.498 0.217,-0.507 0.254,-0.507C0.365,-0.507 0.414,-0.458 0.414,-0.342L0.414,-0.293C0.393,-0.295 0.368,-0.296 0.33,-0.296C0.138,-0.296 0.045,-0.242 0.045,-0.13C0.045,-0.042 0.109,0.01 0.219,0.01C0.309,0.01 0.38,-0.036 0.418,-0.12L0.42,-0.12C0.417,-0.096 0.415,-0.069 0.415,-0.046L0.415,0ZM0.414,-0.141C0.375,-0.055 0.31,-0.011 0.219,-0.011C0.122,-0.011 0.067,-0.054 0.067,-0.13C0.067,-0.23 0.15,-0.276 0.33,-0.276C0.367,-0.276 0.392,-0.275 0.414,-0.273L0.414,-0.141Z" style="fill:rgb(13,13,13);fill-rule:nonzero;"/>
            </g>
            <g transform="matrix(8,0,0,8,116.068,198.269)">
                <path d="M0.34,-0.028C0.319,-0.017 0.297,-0.011 0.268,-0.011C0.195,-0.011 0.154,-0.049 0.154,-0.12L0.154,-0.499L0.241,-0.499C0.275,-0.499 0.295,-0.498 0.316,-0.496L0.316,-0.523C0.295,-0.521 0.275,-0.52 0.241,-0.52L0.154,-0.52L0.154,-0.611C0.154,-0.646 0.155,-0.666 0.157,-0.687L0.128,-0.687C0.13,-0.666 0.131,-0.646 0.131,-0.611L0.131,-0.52L0.081,-0.52C0.047,-0.52 0.027,-0.521 0.005,-0.523L0.005,-0.496C0.027,-0.498 0.047,-0.499 0.081,-0.499L0.131,-0.499L0.131,-0.114C0.131,-0.036 0.18,0.01 0.268,0.01C0.295,0.01 0.325,0.004 0.347,-0.008L0.34,-0.028Z" style="fill:rgb(13,13,13);fill-rule:nonzero;"/>
            </g>
            <g transform="matrix(8,0,0,8,118.868,198.269)">
                <path d="M0.12,-0.721C0.106,-0.721 0.095,-0.711 0.095,-0.697C0.095,-0.682 0.106,-0.672 0.12,-0.672C0.134,-0.672 0.144,-0.682 0.144,-0.697C0.144,-0.711 0.134,-0.721 0.12,-0.721ZM0.105,-0.52C0.107,-0.499 0.108,-0.48 0.108,-0.445L0.108,-0.075C0.108,-0.041 0.107,-0.021 0.105,0L0.134,0C0.132,-0.021 0.131,-0.041 0.131,-0.075L0.131,-0.445C0.131,-0.48 0.132,-0.499 0.134,-0.52L0.105,-0.52Z" style="fill:rgb(13,13,13);fill-rule:nonzero;"/>
            </g>
            <g transform="matrix(8,0,0,8,120.772,198.269)">
                <path d="M0.422,-0.52C0.417,-0.502 0.411,-0.484 0.395,-0.445L0.254,-0.091C0.242,-0.061 0.237,-0.047 0.231,-0.029C0.225,-0.047 0.217,-0.068 0.208,-0.091L0.067,-0.445C0.051,-0.484 0.045,-0.502 0.04,-0.52L0.01,-0.52C0.02,-0.501 0.028,-0.482 0.043,-0.445L0.19,-0.075C0.203,-0.042 0.21,-0.021 0.215,0L0.247,0C0.252,-0.021 0.259,-0.042 0.272,-0.075L0.419,-0.445C0.436,-0.487 0.443,-0.503 0.452,-0.52L0.422,-0.52Z" style="fill:rgb(13,13,13);fill-rule:nonzero;"/>
            </g>
            <g transform="matrix(8,0,0,8,124.388,198.269)">
                <path d="M0.511,-0.268L0.511,-0.286C0.511,-0.444 0.432,-0.533 0.292,-0.533C0.145,-0.533 0.055,-0.431 0.055,-0.263C0.055,-0.101 0.155,0.01 0.3,0.01C0.361,0.01 0.418,-0.009 0.46,-0.043C0.473,-0.053 0.489,-0.068 0.498,-0.079L0.482,-0.094C0.471,-0.079 0.458,-0.066 0.442,-0.054C0.404,-0.026 0.353,-0.011 0.3,-0.011C0.166,-0.011 0.078,-0.111 0.078,-0.263L0.078,-0.268L0.511,-0.268ZM0.079,-0.288C0.087,-0.428 0.166,-0.512 0.291,-0.512C0.418,-0.512 0.488,-0.432 0.488,-0.288L0.079,-0.288Z" style="fill:rgb(13,13,13);fill-rule:nonzero;"/>
            </g>
            <g transform="matrix(8,0,0,8,130.676,198.269)">
                <path d="M0.115,-0.392C0.118,-0.41 0.12,-0.448 0.12,-0.481L0.12,-0.52L0.094,-0.52C0.096,-0.499 0.097,-0.48 0.097,-0.445L0.097,-0.075C0.097,-0.041 0.096,-0.021 0.094,0L0.123,0C0.121,-0.021 0.12,-0.041 0.12,-0.075L0.12,-0.348C0.138,-0.442 0.205,-0.508 0.283,-0.508C0.312,-0.508 0.335,-0.503 0.361,-0.492L0.369,-0.514C0.35,-0.524 0.321,-0.529 0.29,-0.529C0.211,-0.529 0.144,-0.474 0.117,-0.392L0.115,-0.392Z" style="fill:rgb(13,13,13);fill-rule:nonzero;"/>
            </g>
            <g transform="matrix(8,0,0,8,133.468,198.269)">
                <path d="M0.288,-0.53C0.147,-0.53 0.055,-0.424 0.055,-0.261C0.055,-0.1 0.149,0.01 0.288,0.01C0.429,0.01 0.521,-0.096 0.521,-0.259C0.521,-0.42 0.427,-0.53 0.288,-0.53ZM0.288,-0.011C0.16,-0.011 0.078,-0.11 0.078,-0.261C0.078,-0.413 0.159,-0.509 0.288,-0.509C0.416,-0.509 0.498,-0.41 0.498,-0.259C0.498,-0.107 0.417,-0.011 0.288,-0.011Z" style="fill:rgb(13,13,13);fill-rule:nonzero;"/>
            </g>
            <g transform="matrix(8,0,0,8,138.076,198.269)">
                <path d="M0.501,-0.445C0.501,-0.48 0.502,-0.499 0.504,-0.52L0.475,-0.52C0.477,-0.499 0.478,-0.48 0.478,-0.445L0.478,-0.189C0.478,-0.084 0.4,-0.012 0.285,-0.011C0.178,-0.011 0.121,-0.072 0.121,-0.187L0.121,-0.445C0.121,-0.48 0.122,-0.499 0.124,-0.52L0.095,-0.52C0.097,-0.499 0.098,-0.48 0.098,-0.445L0.098,-0.181C0.098,-0.059 0.166,0.01 0.283,0.01C0.378,0.01 0.451,-0.04 0.479,-0.117L0.481,-0.117C0.479,-0.094 0.478,-0.065 0.478,-0.042L0.478,0L0.504,0C0.502,-0.021 0.501,-0.041 0.501,-0.075L0.501,-0.445Z" style="fill:rgb(13,13,13);fill-rule:nonzero;"/>
            </g>
            <g transform="matrix(8,0,0,8,142.86,198.269)">
                <path d="M0.34,-0.028C0.319,-0.017 0.297,-0.011 0.268,-0.011C0.195,-0.011 0.154,-0.049 0.154,-0.12L0.154,-0.499L0.241,-0.499C0.275,-0.499 0.295,-0.498 0.316,-0.496L0.316,-0.523C0.295,-0.521 0.275,-0.52 0.241,-0.52L0.154,-0.52L0.154,-0.611C0.154,-0.646 0.155,-0.666 0.157,-0.687L0.128,-0.687C0.13,-0.666 0.131,-0.646 0.131,-0.611L0.131,-0.52L0.081,-0.52C0.047,-0.52 0.027,-0.521 0.005,-0.523L0.005,-0.496C0.027,-0.498 0.047,-0.499 0.081,-0.499L0.131,-0.499L0.131,-0.114C0.131,-0.036 0.18,0.01 0.268,0.01C0.295,0.01 0.325,0.004 0.347,-0.008L0.34,-0.028Z" style="fill:rgb(13,13,13);fill-rule:nonzero;"/>
            </g>
            <g transform="matrix(8,0,0,8,145.66,198.269)">
                <path d="M0.511,-0.268L0.511,-0.286C0.511,-0.444 0.432,-0.533 0.292,-0.533C0.145,-0.533 0.055,-0.431 0.055,-0.263C0.055,-0.101 0.155,0.01 0.3,0.01C0.361,0.01 0.418,-0.009 0.46,-0.043C0.473,-0.053 0.489,-0.068 0.498,-0.079L0.482,-0.094C0.471,-0.079 0.458,-0.066 0.442,-0.054C0.404,-0.026 0.353,-0.011 0.3,-0.011C0.166,-0.011 0.078,-0.111 0.078,-0.263L0.078,-0.268L0.511,-0.268ZM0.079,-0.288C0.087,-0.428 0.166,-0.512 0.291,-0.512C0.418,-0.512 0.488,-0.432 0.488,-0.288L0.079,-0.288Z" style="fill:rgb(13,13,13);fill-rule:nonzero;"/>
            </g>
            <g transform="matrix(8,0,0,8,150.188,198.269)">
                <path d="M0.115,-0.392C0.118,-0.41 0.12,-0.448 0.12,-0.481L0.12,-0.52L0.094,-0.52C0.096,-0.499 0.097,-0.48 0.097,-0.445L0.097,-0.075C0.097,-0.041 0.096,-0.021 0.094,0L0.123,0C0.121,-0.021 0.12,-0.041 0.12,-0.075L0.12,-0.348C0.138,-0.442 0.205,-0.508 0.283,-0.508C0.312,-0.508 0.335,-0.503 0.361,-0.492L0.369,-0.514C0.35,-0.524 0.321,-0.529 0.29,-0.529C0.211,-0.529 0.144,-0.474 0.117,-0.392L0.115,-0.392Z" style="fill:rgb(13,13,13);fill-rule:nonzero;"/>
            </g>
            <g transform="matrix(8,0,0,8,154.98,198.269)">
                <path d="M0.12,-0.52L0.085,-0.52C0.051,-0.52 0.031,-0.521 0.01,-0.523L0.01,-0.496C0.031,-0.498 0.05,-0.499 0.085,-0.499L0.12,-0.499L0.12,-0.076C0.12,-0.042 0.119,-0.022 0.117,0L0.146,0C0.144,-0.022 0.143,-0.042 0.143,-0.076L0.143,-0.499L0.195,-0.499C0.229,-0.499 0.249,-0.498 0.27,-0.496L0.27,-0.523C0.249,-0.521 0.229,-0.52 0.195,-0.52L0.143,-0.52L0.143,-0.569C0.143,-0.683 0.188,-0.739 0.272,-0.739C0.301,-0.739 0.324,-0.734 0.347,-0.723L0.355,-0.745C0.331,-0.755 0.304,-0.76 0.274,-0.76C0.175,-0.76 0.12,-0.692 0.12,-0.567L0.12,-0.52Z" style="fill:rgb(13,13,13);fill-rule:nonzero;"/>
            </g>
            <g transform="matrix(8,0,0,8,157.268,198.269)">
                <path d="M0.288,-0.53C0.147,-0.53 0.055,-0.424 0.055,-0.261C0.055,-0.1 0.149,0.01 0.288,0.01C0.429,0.01 0.521,-0.096 0.521,-0.259C0.521,-0.42 0.427,-0.53 0.288,-0.53ZM0.288,-0.011C0.16,-0.011 0.078,-0.11 0.078,-0.261C0.078,-0.413 0.159,-0.509 0.288,-0.509C0.416,-0.509 0.498,-0.41 0.498,-0.259C0.498,-0.107 0.417,-0.011 0.288,-0.011Z" style="fill:rgb(13,13,13);fill-rule:nonzero;"/>
            </g>
            <g transform="matrix(8,0,0,8,161.876,198.269)">
                <path d="M0.115,-0.392C0.118,-0.41 0.12,-0.448 0.12,-0.481L0.12,-0.52L0.094,-0.52C0.096,-0.499 0.097,-0.48 0.097,-0.445L0.097,-0.075C0.097,-0.041 0.096,-0.021 0.094,0L0.123,0C0.121,-0.021 0.12,-0.041 0.12,-0.075L0.12,-0.348C0.138,-0.442 0.205,-0.508 0.283,-0.508C0.312,-0.508 0.335,-0.503 0.361,-0.492L0.369,-0.514C0.35,-0.524 0.321,-0.529 0.29,-0.529C0.211,-0.529 0.144,-0.474 0.117,-0.392L0.115,-0.392Z" style="fill:rgb(13,13,13);fill-rule:nonzero;"/>
            </g>
            <g transform="matrix(8,0,0,8,86.9279,206.269)">
                <path d="M0.34,-0.028C0.319,-0.017 0.297,-0.011 0.268,-0.011C0.195,-0.011 0.154,-0.049 0.154,-0.12L0.154,-0.499L0.241,-0.499C0.275,-0.499 0.295,-0.498 0.316,-0.496L0.316,-0.523C0.295,-0.521 0.275,-0.52 0.241,-0.52L0.154,-0.52L0.154,-0.611C0.154,-0.646 0.155,-0.666 0.157,-0.687L0.128,-0.687C0.13,-0.666 0.131,-0.646 0.131,-0.611L0.131,-0.52L0.081,-0.52C0.047,-0.52 0.027,-0.521 0.005,-0.523L0.005,-0.496C0.027,-0.498 0.047,-0.499 0.081,-0.499L0.131,-0.499L0.131,-0.114C0.131,-0.036 0.18,0.01 0.268,0.01C0.295,0.01 0.325,0.004 0.347,-0.008L0.34,-0.028Z" style="fill:rgb(13,13,13);fill-rule:nonzero;"/>
            </g>
            <g transform="matrix(8,0,0,8,89.7279,206.269)">
                <path d="M0.504,0C0.502,-0.022 0.501,-0.042 0.501,-0.075L0.501,-0.338C0.501,-0.46 0.433,-0.53 0.316,-0.53C0.222,-0.53 0.149,-0.481 0.121,-0.405L0.121,-0.685C0.121,-0.72 0.122,-0.739 0.124,-0.76L0.095,-0.76C0.097,-0.739 0.098,-0.72 0.098,-0.685L0.098,-0.075C0.098,-0.041 0.097,-0.021 0.095,0L0.124,0C0.122,-0.021 0.121,-0.041 0.121,-0.075L0.121,-0.33C0.121,-0.435 0.199,-0.508 0.314,-0.509C0.421,-0.509 0.478,-0.447 0.478,-0.332L0.478,-0.075C0.478,-0.042 0.477,-0.022 0.475,0L0.504,0Z" style="fill:rgb(13,13,13);fill-rule:nonzero;"/>
            </g>
            <g transform="matrix(8,0,0,8,94.5199,206.269)">
                <path d="M0.511,-0.268L0.511,-0.286C0.511,-0.444 0.432,-0.533 0.292,-0.533C0.145,-0.533 0.055,-0.431 0.055,-0.263C0.055,-0.101 0.155,0.01 0.3,0.01C0.361,0.01 0.418,-0.009 0.46,-0.043C0.473,-0.053 0.489,-0.068 0.498,-0.079L0.482,-0.094C0.471,-0.079 0.458,-0.066 0.442,-0.054C0.404,-0.026 0.353,-0.011 0.3,-0.011C0.166,-0.011 0.078,-0.111 0.078,-0.263L0.078,-0.268L0.511,-0.268ZM0.079,-0.288C0.087,-0.428 0.166,-0.512 0.291,-0.512C0.418,-0.512 0.488,-0.432 0.488,-0.288L0.079,-0.288Z" style="fill:rgb(13,13,13);fill-rule:nonzero;"/>
            </g>
            <g transform="matrix(8,0,0,8,100.808,206.269)">
                <path d="M0.478,-0.093C0.468,-0.079 0.457,-0.069 0.436,-0.052C0.4,-0.025 0.35,-0.011 0.297,-0.011C0.165,-0.011 0.078,-0.11 0.078,-0.26C0.078,-0.411 0.163,-0.506 0.297,-0.506C0.339,-0.506 0.378,-0.499 0.41,-0.479C0.436,-0.463 0.453,-0.447 0.468,-0.426L0.486,-0.443C0.471,-0.462 0.451,-0.479 0.428,-0.494C0.391,-0.517 0.347,-0.527 0.298,-0.527C0.15,-0.527 0.055,-0.422 0.055,-0.26C0.055,-0.1 0.154,0.01 0.297,0.01C0.357,0.01 0.413,-0.008 0.456,-0.042C0.471,-0.054 0.483,-0.065 0.494,-0.077L0.478,-0.093Z" style="fill:rgb(13,13,13);fill-rule:nonzero;"/>
            </g>
            <g transform="matrix(8,0,0,8,105.08,206.269)">
                <path d="M0.115,-0.392C0.118,-0.41 0.12,-0.448 0.12,-0.481L0.12,-0.52L0.094,-0.52C0.096,-0.499 0.097,-0.48 0.097,-0.445L0.097,-0.075C0.097,-0.041 0.096,-0.021 0.094,0L0.123,0C0.121,-0.021 0.12,-0.041 0.12,-0.075L0.12,-0.348C0.138,-0.442 0.205,-0.508 0.283,-0.508C0.312,-0.508 0.335,-0.503 0.361,-0.492L0.369,-0.514C0.35,-0.524 0.321,-0.529 0.29,-0.529C0.211,-0.529 0.144,-0.474 0.117,-0.392L0.115,-0.392Z" style="fill:rgb(13,13,13);fill-rule:nonzero;"/>
            </g>
            <g transform="matrix(8,0,0,8,108.272,206.269)">
                <path d="M0.429,-0.52C0.424,-0.501 0.417,-0.48 0.403,-0.445L0.239,-0.032L0.074,-0.445C0.058,-0.484 0.052,-0.502 0.047,-0.52L0.015,-0.52C0.025,-0.503 0.037,-0.476 0.049,-0.445L0.226,0L0.213,0.033C0.153,0.183 0.12,0.219 0.046,0.219C0.023,0.219 0.001,0.213 -0.019,0.201L-0.025,0.225C-0.006,0.235 0.018,0.24 0.042,0.24C0.128,0.24 0.172,0.196 0.236,0.036L0.426,-0.445C0.443,-0.487 0.45,-0.503 0.459,-0.52L0.429,-0.52Z" style="fill:rgb(13,13,13);fill-rule:nonzero;"/>
            </g>
            <g transform="matrix(8,0,0,8,112.024,206.269)">
                <path d="M0.045,-0.091C0.06,-0.068 0.08,-0.047 0.102,-0.031C0.139,-0.003 0.185,0.01 0.244,0.01C0.361,0.01 0.431,-0.044 0.431,-0.134C0.431,-0.213 0.383,-0.251 0.244,-0.279C0.138,-0.3 0.097,-0.33 0.097,-0.389C0.097,-0.464 0.152,-0.509 0.244,-0.509C0.278,-0.509 0.311,-0.502 0.34,-0.488C0.363,-0.476 0.382,-0.461 0.394,-0.446L0.41,-0.463C0.394,-0.481 0.369,-0.499 0.344,-0.51C0.314,-0.523 0.281,-0.53 0.244,-0.53C0.142,-0.53 0.074,-0.474 0.074,-0.389C0.074,-0.318 0.121,-0.28 0.24,-0.256C0.369,-0.23 0.408,-0.201 0.408,-0.132C0.408,-0.053 0.35,-0.011 0.245,-0.011C0.191,-0.011 0.146,-0.023 0.114,-0.049C0.094,-0.065 0.076,-0.085 0.062,-0.107L0.045,-0.091Z" style="fill:rgb(13,13,13);fill-rule:nonzero;"/>
            </g>
            <g transform="matrix(8,0,0,8,115.832,206.269)">
                <path d="M0.34,-0.028C0.319,-0.017 0.297,-0.011 0.268,-0.011C0.195,-0.011 0.154,-0.049 0.154,-0.12L0.154,-0.499L0.241,-0.499C0.275,-0.499 0.295,-0.498 0.316,-0.496L0.316,-0.523C0.295,-0.521 0.275,-0.52 0.241,-0.52L0.154,-0.52L0.154,-0.611C0.154,-0.646 0.155,-0.666 0.157,-0.687L0.128,-0.687C0.13,-0.666 0.131,-0.646 0.131,-0.611L0.131,-0.52L0.081,-0.52C0.047,-0.52 0.027,-0.521 0.005,-0.523L0.005,-0.496C0.027,-0.498 0.047,-0.499 0.081,-0.499L0.131,-0.499L0.131,-0.114C0.131,-0.036 0.18,0.01 0.268,0.01C0.295,0.01 0.325,0.004 0.347,-0.008L0.34,-0.028Z" style="fill:rgb(13,13,13);fill-rule:nonzero;"/>
            </g>
            <g transform="matrix(8,0,0,8,118.632,206.269)">
                <path d="M0.415,0L0.44,0C0.438,-0.025 0.437,-0.046 0.437,-0.076L0.437,-0.345C0.437,-0.471 0.38,-0.528 0.256,-0.528C0.216,-0.528 0.182,-0.52 0.151,-0.504C0.127,-0.492 0.105,-0.475 0.084,-0.454L0.098,-0.436C0.114,-0.454 0.134,-0.471 0.159,-0.484C0.187,-0.498 0.217,-0.507 0.254,-0.507C0.365,-0.507 0.414,-0.458 0.414,-0.342L0.414,-0.293C0.393,-0.295 0.368,-0.296 0.33,-0.296C0.138,-0.296 0.045,-0.242 0.045,-0.13C0.045,-0.042 0.109,0.01 0.219,0.01C0.309,0.01 0.38,-0.036 0.418,-0.12L0.42,-0.12C0.417,-0.096 0.415,-0.069 0.415,-0.046L0.415,0ZM0.414,-0.141C0.375,-0.055 0.31,-0.011 0.219,-0.011C0.122,-0.011 0.067,-0.054 0.067,-0.13C0.067,-0.23 0.15,-0.276 0.33,-0.276C0.367,-0.276 0.392,-0.275 0.414,-0.273L0.414,-0.141Z" style="fill:rgb(13,13,13);fill-rule:nonzero;"/>
            </g>
            <g transform="matrix(8,0,0,8,122.912,206.269)">
                <path d="M0.105,-0.76C0.107,-0.739 0.108,-0.72 0.108,-0.685L0.108,-0.075C0.108,-0.041 0.107,-0.021 0.105,0L0.134,0C0.132,-0.021 0.131,-0.041 0.131,-0.075L0.131,-0.685C0.131,-0.72 0.132,-0.739 0.134,-0.76L0.105,-0.76Z" style="fill:rgb(13,13,13);fill-rule:nonzero;"/>
            </g>
            <g transform="matrix(8,0,0,8,126.584,206.269)">
                <path d="M0.105,-0.76C0.107,-0.739 0.108,-0.72 0.108,-0.685L0.108,-0.075C0.108,-0.041 0.107,-0.021 0.105,0L0.134,0C0.132,-0.021 0.131,-0.041 0.131,-0.075L0.131,-0.685C0.131,-0.72 0.132,-0.739 0.134,-0.76L0.105,-0.76Z" style="fill:rgb(13,13,13);fill-rule:nonzero;"/>
            </g>
            <g transform="matrix(8,0,0,8,128.496,206.269)">
                <path d="M0.415,0L0.44,0C0.438,-0.025 0.437,-0.046 0.437,-0.076L0.437,-0.345C0.437,-0.471 0.38,-0.528 0.256,-0.528C0.216,-0.528 0.182,-0.52 0.151,-0.504C0.127,-0.492 0.105,-0.475 0.084,-0.454L0.098,-0.436C0.114,-0.454 0.134,-0.471 0.159,-0.484C0.187,-0.498 0.217,-0.507 0.254,-0.507C0.365,-0.507 0.414,-0.458 0.414,-0.342L0.414,-0.293C0.393,-0.295 0.368,-0.296 0.33,-0.296C0.138,-0.296 0.045,-0.242 0.045,-0.13C0.045,-0.042 0.109,0.01 0.219,0.01C0.309,0.01 0.38,-0.036 0.418,-0.12L0.42,-0.12C0.417,-0.096 0.415,-0.069 0.415,-0.046L0.415,0ZM0.414,-0.141C0.375,-0.055 0.31,-0.011 0.219,-0.011C0.122,-0.011 0.067,-0.054 0.067,-0.13C0.067,-0.23 0.15,-0.276 0.33,-0.276C0.367,-0.276 0.392,-0.275 0.414,-0.273L0.414,-0.141Z" style="fill:rgb(13,13,13);fill-rule:nonzero;"/>
            </g>
            <g transform="matrix(8,0,0,8,132.776,206.269)">
                <path d="M0.504,0C0.502,-0.022 0.501,-0.042 0.501,-0.075L0.501,-0.338C0.501,-0.46 0.433,-0.53 0.316,-0.53C0.221,-0.53 0.148,-0.48 0.12,-0.403L0.117,-0.403C0.12,-0.426 0.121,-0.455 0.121,-0.478L0.121,-0.52L0.095,-0.52C0.097,-0.499 0.098,-0.48 0.098,-0.445L0.098,-0.075C0.098,-0.041 0.097,-0.021 0.095,0L0.124,0C0.122,-0.021 0.121,-0.041 0.121,-0.075L0.121,-0.33C0.121,-0.435 0.199,-0.508 0.314,-0.509C0.421,-0.509 0.478,-0.447 0.478,-0.332L0.478,-0.075C0.478,-0.042 0.477,-0.022 0.475,0L0.504,0Z" style="fill:rgb(13,13,13);fill-rule:nonzero;"/>
            </g>
            <g transform="matrix(8,0,0,8,137.568,206.269)">
                <path d="M0.495,-0.52L0.495,-0.438C0.495,-0.415 0.496,-0.387 0.498,-0.364C0.468,-0.468 0.392,-0.531 0.286,-0.531C0.148,-0.531 0.055,-0.423 0.055,-0.262C0.055,-0.097 0.146,0.01 0.286,0.01C0.395,0.01 0.471,-0.054 0.499,-0.162C0.497,-0.142 0.495,-0.107 0.495,-0.082L0.495,0.026C0.495,0.147 0.419,0.219 0.291,0.219C0.231,0.219 0.187,0.206 0.154,0.18C0.132,0.162 0.115,0.138 0.1,0.108L0.081,0.121C0.099,0.154 0.119,0.179 0.143,0.198C0.181,0.227 0.228,0.24 0.291,0.24C0.43,0.24 0.518,0.158 0.518,0.026L0.518,-0.445C0.518,-0.48 0.519,-0.499 0.521,-0.52L0.495,-0.52ZM0.286,-0.011C0.158,-0.011 0.078,-0.109 0.078,-0.262C0.078,-0.414 0.158,-0.51 0.286,-0.51C0.413,-0.51 0.495,-0.413 0.495,-0.262C0.495,-0.107 0.415,-0.011 0.286,-0.011Z" style="fill:rgb(13,13,13);fill-rule:nonzero;"/>
            </g>
            <g transform="matrix(8,0,0,8,142.496,206.269)">
                <path d="M0.501,-0.445C0.501,-0.48 0.502,-0.499 0.504,-0.52L0.475,-0.52C0.477,-0.499 0.478,-0.48 0.478,-0.445L0.478,-0.189C0.478,-0.084 0.4,-0.012 0.285,-0.011C0.178,-0.011 0.121,-0.072 0.121,-0.187L0.121,-0.445C0.121,-0.48 0.122,-0.499 0.124,-0.52L0.095,-0.52C0.097,-0.499 0.098,-0.48 0.098,-0.445L0.098,-0.181C0.098,-0.059 0.166,0.01 0.283,0.01C0.378,0.01 0.451,-0.04 0.479,-0.117L0.481,-0.117C0.479,-0.094 0.478,-0.065 0.478,-0.042L0.478,0L0.504,0C0.502,-0.021 0.501,-0.041 0.501,-0.075L0.501,-0.445Z" style="fill:rgb(13,13,13);fill-rule:nonzero;"/>
            </g>
            <g transform="matrix(8,0,0,8,147.28,206.269)">
                <path d="M0.415,0L0.44,0C0.438,-0.025 0.437,-0.046 0.437,-0.076L0.437,-0.345C0.437,-0.471 0.38,-0.528 0.256,-0.528C0.216,-0.528 0.182,-0.52 0.151,-0.504C0.127,-0.492 0.105,-0.475 0.084,-0.454L0.098,-0.436C0.114,-0.454 0.134,-0.471 0.159,-0.484C0.187,-0.498 0.217,-0.507 0.254,-0.507C0.365,-0.507 0.414,-0.458 0.414,-0.342L0.414,-0.293C0.393,-0.295 0.368,-0.296 0.33,-0.296C0.138,-0.296 0.045,-0.242 0.045,-0.13C0.045,-0.042 0.109,0.01 0.219,0.01C0.309,0.01 0.38,-0.036 0.418,-0.12L0.42,-0.12C0.417,-0.096 0.415,-0.069 0.415,-0.046L0.415,0ZM0.414,-0.141C0.375,-0.055 0.31,-0.011 0.219,-0.011C0.122,-0.011 0.067,-0.054 0.067,-0.13C0.067,-0.23 0.15,-0.276 0.33,-0.276C0.367,-0.276 0.392,-0.275 0.414,-0.273L0.414,-0.141Z" style="fill:rgb(13,13,13);fill-rule:nonzero;"/>
            </g>
            <g transform="matrix(8,0,0,8,151.48,206.269)">
                <path d="M0.495,-0.52L0.495,-0.438C0.495,-0.415 0.496,-0.387 0.498,-0.364C0.468,-0.468 0.392,-0.531 0.286,-0.531C0.148,-0.531 0.055,-0.423 0.055,-0.262C0.055,-0.097 0.146,0.01 0.286,0.01C0.395,0.01 0.471,-0.054 0.499,-0.162C0.497,-0.142 0.495,-0.107 0.495,-0.082L0.495,0.026C0.495,0.147 0.419,0.219 0.291,0.219C0.231,0.219 0.187,0.206 0.154,0.18C0.132,0.162 0.115,0.138 0.1,0.108L0.081,0.121C0.099,0.154 0.119,0.179 0.143,0.198C0.181,0.227 0.228,0.24 0.291,0.24C0.43,0.24 0.518,0.158 0.518,0.026L0.518,-0.445C0.518,-0.48 0.519,-0.499 0.521,-0.52L0.495,-0.52ZM0.286,-0.011C0.158,-0.011 0.078,-0.109 0.078,-0.262C0.078,-0.414 0.158,-0.51 0.286,-0.51C0.413,-0.51 0.495,-0.413 0.495,-0.262C0.495,-0.107 0.415,-0.011 0.286,-0.011Z" style="fill:rgb(13,13,13);fill-rule:nonzero;"/>
            </g>
            <g transform="matrix(8,0,0,8,156.408,206.269)">
                <path d="M0.511,-0.268L0.511,-0.286C0.511,-0.444 0.432,-0.533 0.292,-0.533C0.145,-0.533 0.055,-0.431 0.055,-0.263C0.055,-0.101 0.155,0.01 0.3,0.01C0.361,0.01 0.418,-0.009 0.46,-0.043C0.473,-0.053 0.489,-0.068 0.498,-0.079L0.482,-0.094C0.471,-0.079 0.458,-0.066 0.442,-0.054C0.404,-0.026 0.353,-0.011 0.3,-0.011C0.166,-0.011 0.078,-0.111 0.078,-0.263L0.078,-0.268L0.511,-0.268ZM0.079,-0.288C0.087,-0.428 0.166,-0.512 0.291,-0.512C0.418,-0.512 0.488,-0.432 0.488,-0.288L0.079,-0.288Z" style="fill:rgb(13,13,13);fill-rule:nonzero;"/>
            </g>
        </g>
    </g>
</svg>
